<svg xmlns="http://www.w3.org/2000/svg" width="115.584" height="178.563" viewBox="0 0 115.584 178.563"><g transform="translate(1108 -1869)"><path d="M76.478,15H74.427L70.435,8.451V15H68.384V5.047h2.051l4,6.563V5.047h2.044Zm10.579-4.313H83.12v2.666h4.621V15H81.069V5.047h6.658V6.708H83.12V9.08h3.938ZM99.5,12.129l1.34-7.082h2.044L100.671,15H98.607l-1.62-6.658L95.367,15H93.3L91.094,5.047h2.044l1.347,7.068,1.641-7.068h1.736Zm12.452.26a1.052,1.052,0,0,0-.41-.892,5.38,5.38,0,0,0-1.477-.656,10.467,10.467,0,0,1-1.688-.68,2.759,2.759,0,0,1-1.7-2.468,2.4,2.4,0,0,1,.455-1.439,2.965,2.965,0,0,1,1.306-.988,4.914,4.914,0,0,1,1.911-.355,4.473,4.473,0,0,1,1.9.386,3.026,3.026,0,0,1,1.3,1.09,2.853,2.853,0,0,1,.461,1.6h-2.051a1.342,1.342,0,0,0-.431-1.063,1.77,1.77,0,0,0-1.21-.379,1.891,1.891,0,0,0-1.169.318,1,1,0,0,0-.417.837.96.96,0,0,0,.489.813,5.522,5.522,0,0,0,1.439.615,6.217,6.217,0,0,1,2.55,1.306,2.6,2.6,0,0,1,.8,1.941,2.4,2.4,0,0,1-.978,2.027,4.279,4.279,0,0,1-2.632.735,5.082,5.082,0,0,1-2.092-.42,3.31,3.31,0,0,1-1.439-1.152,2.95,2.95,0,0,1-.5-1.7h2.058q0,1.647,1.969,1.647a1.915,1.915,0,0,0,1.142-.3A.967.967,0,0,0,111.948,12.389Z" transform="translate(-1141 2032.426)" fill="#ff3c3c"/><g transform="translate(-1553.496 1573.301)" fill="none"><path d="M523.98,295.7H483.017a8.04,8.04,0,0,0-6.962,4.02l-20.481,35.475a8.04,8.04,0,0,0,0,8.039l20.481,35.475a8.04,8.04,0,0,0,6.962,4.02H523.98a8.04,8.04,0,0,0,6.962-4.02l20.481-35.475a8.04,8.04,0,0,0,0-8.039l-20.481-35.475A8.04,8.04,0,0,0,523.98,295.7Z" stroke="none"/><path d="M 483.0167236328125 298.6990051269531 C 481.2222290039062 298.6990051269531 479.550048828125 299.6644897460938 478.6527709960938 301.2186889648438 L 458.1713256835938 336.6935119628906 C 457.2739868164062 338.2477111816406 457.2739868164062 340.1786804199219 458.1713256835938 341.7328796386719 L 478.6527709960938 377.2077026367188 C 479.550048828125 378.7619018554688 481.2222290039062 379.7273864746094 483.0167236328125 379.7273864746094 L 523.98046875 379.7273864746094 C 525.7749633789062 379.7273864746094 527.4471435546875 378.7619018554688 528.344482421875 377.2077026367188 L 548.8258056640625 341.7328186035156 C 549.72314453125 340.1786499023438 549.72314453125 338.2477416992188 548.8258056640625 336.6935119628906 L 528.344482421875 301.2187194824219 C 527.4471435546875 299.6644897460938 525.7749633789062 298.6990051269531 523.98046875 298.6990051269531 L 483.0167236328125 298.6990051269531 M 483.0167236328125 295.6990051269531 L 523.98046875 295.6990051269531 C 526.8525390625 295.6990051269531 529.5065307617188 297.2315063476562 530.9425659179688 299.7186889648438 L 551.4238891601562 335.1935119628906 C 552.8599243164062 337.6806945800781 552.8599243164062 340.7456970214844 551.4238891601562 343.2328796386719 L 530.9425659179688 378.7077026367188 C 529.5065307617188 381.1948852539062 526.8525390625 382.7273864746094 523.98046875 382.7273864746094 L 483.0167236328125 382.7273864746094 C 480.1446533203125 382.7273864746094 477.4906616210938 381.1948852539062 476.0546875 378.7077026367188 L 455.5732421875 343.2328796386719 C 454.1372680664062 340.7456970214844 454.1372680664062 337.6806945800781 455.5732421875 335.1935119628906 L 476.0546875 299.7186889648438 C 477.4906616210938 297.2315063476562 480.1446533203125 295.6990051269531 483.0167236328125 295.6990051269531 Z" stroke="none" fill="#ff3c3c"/></g><path d="M544.885,1185.374l-6.84-6.84a1.694,1.694,0,0,0-1.2-.5H522.931a1.694,1.694,0,0,0-1.694,1.694v28a1.694,1.694,0,0,0,1.694,1.694h20.756a1.694,1.694,0,0,0,1.694-1.694v-21.158A1.694,1.694,0,0,0,544.885,1185.374Zm-20.25-.339h5.686a.635.635,0,1,1,0,1.271h-5.686a.635.635,0,1,1,0-1.271Zm0,8.743h12.511a.635.635,0,1,1,0,1.271H524.635a.635.635,0,1,1,0-1.271Zm0,4.508h7.192a.635.635,0,1,1,0,1.271h-7.192a.635.635,0,1,1,0-1.271Zm14.552,5.778H524.635a.635.635,0,1,1,0-1.271h14.552a.635.635,0,0,1,0,1.271Zm-1.765-17.339a.847.847,0,0,1-.847-.847v-5.755l6.6,6.6Z" transform="translate(-1583.237 719.1)" fill="#ff3c3c"/><g transform="translate(-1355 344.564)"><path d="M253.523,1633h4.005v6.6a27,27,0,0,0,4.256-1.05l.224,4.284c-1.288.337-2.072.505-4.48.925v5.965a14.162,14.162,0,0,1,3.472-.42c5.684,0,9.379,3.57,9.379,9.031a9.574,9.574,0,0,1-3.3,7.73,13.812,13.812,0,0,1-5.768,2.6l-2.38-3.57a11.258,11.258,0,0,0,4.564-1.6,6.379,6.379,0,0,0,2.548-5.377c0-3.276-2.017-5.209-5.4-5.209a12.381,12.381,0,0,0-3.108.42V1664c0,2.9-1.288,4.453-3.612,4.453a6.936,6.936,0,0,1-6.916-7.057c.083-4.285,2.3-7.73,6.523-10.081V1644.3c-1.9.21-3.387.294-4.759.336v-4.369c2.016,0,3.192-.042,4.759-.168Zm0,22.432a8.389,8.389,0,0,0-2.659,6.049c0,1.386.924,2.646,1.932,2.646.475,0,.727-.462.727-1.344Zm15.485-9.409a39.925,39.925,0,0,0-5.908-7.184l2.463-2.9a38.485,38.485,0,0,1,5.964,6.762Z" fill="#292929"/><path d="M288.132,1647.741h3.78v4.117h-3.864c-.028.8-.168,2.4-.252,3.109a52.763,52.763,0,0,1,4.76,7.141l-2.324,4.243a57.33,57.33,0,0,0-3.248-6.343l-.028.126-.028.126a22.873,22.873,0,0,1-4.956,9.7l-2.716-3.822c3.248-3.655,4.872-8.276,5.068-14.283h-5.152v-4.117h5.236v-6.427h-.532a40.907,40.907,0,0,1-1.9,5.461l-3.164-2.562a36.592,36.592,0,0,0,3.024-12.351l3.78.547c-.252,1.806-.448,3.109-.784,4.83H291.3v4.075h-3.164Zm15.26,19.744h-3.836v-2.436h-3.024v2.856h-3.724v-31.3h10.584Zm-6.86-6.679h3.024v-20.037h-3.024Z" fill="#292929"/><path d="M311.4,1656.311c.28-4.621.644-8.234,1.512-14.493l.252-1.722,4.256.8c-.644,3.822-1.12,7.392-1.4,10.543a10.439,10.439,0,0,1,7.588-2.856c4.9,0,8.288,3.654,8.288,8.905,0,6.259-4.564,9.914-14.056,11.258l-2.1-3.99a20.551,20.551,0,0,0,8.624-2.521,5.361,5.361,0,0,0,2.66-4.831c0-3.192-1.54-5-4.284-5-2.772,0-5.46,1.723-7.42,4.789Zm12.516-15.29a48.982,48.982,0,0,0-10-5.377l2.24-3.614a52.667,52.667,0,0,1,10,5.209Z" fill="#292929"/><path d="M346.68,1660.512c0,2.1.84,2.478,5.628,2.478a47.206,47.206,0,0,0,6.832-.462l.14,4.62a53,53,0,0,1-6.58.337c-4.284,0-6.608-.3-7.9-1.008-1.428-.756-2.128-2.143-2.128-4.159v-14.7l-4.76.336-.14-4.158,4.9-.378v-8.107h4v7.813l6.44-.463v-9.367h4v9.073l5.32-.378.14,4.16-5.46.419v7.9q0,3.906-3.192,3.906a9.572,9.572,0,0,1-3.976-.8v-4.243a5.082,5.082,0,0,0,2.408.883c.588,0,.756-.294.756-1.345v-6.049l-6.44.5Z" fill="#292929"/></g></g></svg>