<svg xmlns="http://www.w3.org/2000/svg" width="136.641" height="178" viewBox="0 0 136.641 178"><g transform="translate(434 -1869)"><path d="M50.626,15V5.047h3.063a4.651,4.651,0,0,1,2.348.591A4.123,4.123,0,0,1,57.654,7.32,5.187,5.187,0,0,1,58.235,9.8v.458a5.2,5.2,0,0,1-.571,2.468,4.088,4.088,0,0,1-1.61,1.675,4.686,4.686,0,0,1-2.345.6Zm2.051-8.292v6.645h.991a2.227,2.227,0,0,0,1.839-.786,3.552,3.552,0,0,0,.649-2.249V9.791a3.609,3.609,0,0,0-.629-2.3,2.219,2.219,0,0,0-1.839-.783Zm15.836,3.979H64.576v2.666H69.2V15H62.525V5.047h6.658V6.708H64.576V9.08h3.938Zm6.738,2.666h4.354V15H73.2V5.047h2.051ZM85.762,15H83.711V5.047h2.051Zm8.378-2.468L96.4,5.047h2.283L95.213,15h-2.14L89.621,5.047H91.9ZM108.4,10.687h-3.937v2.666h4.621V15h-6.672V5.047h6.658V6.708h-4.607V9.08H108.4Zm8.371.67h-1.634V15H113.09V5.047h3.7a4.181,4.181,0,0,1,2.721.786,2.713,2.713,0,0,1,.957,2.222,3.062,3.062,0,0,1-.441,1.7,3.007,3.007,0,0,1-1.336,1.083l2.153,4.067V15h-2.2ZM115.141,9.7H116.8a1.694,1.694,0,0,0,1.2-.393,1.4,1.4,0,0,0,.424-1.083,1.5,1.5,0,0,0-.4-1.107,1.662,1.662,0,0,0-1.227-.4h-1.647Zm12.787-.164L130,5.047h2.242l-3.268,6.344V15h-2.085V11.391l-3.268-6.344h2.249Z" transform="translate(-457 2032)" fill="#ff9c15"/><g transform="translate(-672.488 219.107)"><path d="M252.46,1776.09c-.336,10.459-2.464,15.543-8.176,19.7l-3.584-3.318c5.208-3.866,6.944-7.856,7.14-16.383h-9.352v-4.327h22.68v4.327Zm4.368-14.493v4.327H241.96V1761.6Zm2.1,4.789a51.125,51.125,0,0,0-1.988-6.05l1.82-1.344a40.454,40.454,0,0,1,2.24,5.965Zm2.94-2.311a42.226,42.226,0,0,0-2.1-5.8l1.82-1.385a31.686,31.686,0,0,1,2.24,5.753Z" fill="#292929"/><path d="M275.056,1761.219V1780.5h-4.7v-19.281Zm11.676-.883v14.619c.028,10.754-2.324,16.551-8.456,21.046l-3.556-3.4a18.391,18.391,0,0,0,5.684-6.931c1.2-2.563,1.652-5.461,1.652-11.09v-14.241Z" fill="#292929"/><path d="M293.9,1788.607c2.548-4.537,4.928-13.357,6.468-23.859l4.312,1.68c-1.847,12.392-4.2,21-7.139,26.086Zm21.028,3.4c-3-11.8-5.628-20.457-7.784-25.792l3.864-2.353a229.9,229.9,0,0,1,8.26,24.869Zm.112-23.524a29.072,29.072,0,0,0-2.8-5.756l1.96-1.931a34.475,34.475,0,0,1,2.8,5.671Zm3.108-3.109a31.181,31.181,0,0,0-2.828-5.67l1.848-1.975a38.79,38.79,0,0,1,2.94,5.629Z" fill="#292929"/><path d="M331.953,1761.219V1780.5h-4.7v-19.281Zm11.675-.883v14.619c.029,10.754-2.323,16.551-8.456,21.046l-3.555-3.4a18.4,18.4,0,0,0,5.684-6.931c1.2-2.563,1.652-5.461,1.652-11.09v-14.241Z" fill="#292929"/><path d="M375.129,1775v4.831H352.645V1775Z" fill="#292929"/></g><path d="M523.979,295.7H483.016a8.039,8.039,0,0,0-6.962,4.02l-20.481,35.474a8.04,8.04,0,0,0,0,8.039l20.481,35.474a8.039,8.039,0,0,0,6.962,4.02h40.963a8.039,8.039,0,0,0,6.962-4.02l20.481-35.474a8.039,8.039,0,0,0,0-8.039l-20.481-35.474A8.039,8.039,0,0,0,523.979,295.7Z" transform="translate(-869.496 1573.301)" fill="#ff9c15"/><path d="M315.044,1183.453h-18.9a1.7,1.7,0,0,0-1.695,1.695v20.6h-1.438v-15.5a.848.848,0,0,0-.847-.847h-7a1.046,1.046,0,0,0-.8.378l-5.885,8.215a1.044,1.044,0,0,0-.243.671v10.973a1.049,1.049,0,0,0,1.049,1.049h4.289a4.24,4.24,0,1,0,8.48,0h10.875a4.24,4.24,0,1,0,8.48,0h4.072a1.271,1.271,0,0,0,1.271-1.271v-3.668h0v-20.6A1.7,1.7,0,0,0,315.044,1183.453ZM289.617,1199a.424.424,0,0,1-.424.424h-6.757a.424.424,0,0,1-.344-.67l4.144-5.784a.424.424,0,0,1,.344-.177h2.613a.424.424,0,0,1,.424.424Zm12.335-3.616.124,6.258a.829.829,0,1,1-1.658,0h0l.124-6.257a3.231,3.231,0,0,1-2.222-3.371c0-2.121,1.31-4.812,2.927-4.812s2.927,2.692,2.927,4.812A3.231,3.231,0,0,1,301.952,1195.382Zm8.687-.019.125,6.277a.829.829,0,1,1-1.658,0h0l.125-6.276a3.231,3.231,0,0,1-2.223-3.371,10.038,10.038,0,0,1,1.006-4.181c.173-.279.411-.4.411.219v3.661a.213.213,0,0,0,.213.213h.5a.213.213,0,0,0,.213-.213v-3.736c0-.575.386-.776.587-.776s.587.2.587.776v3.736a.213.213,0,0,0,.213.213h.5a.213.213,0,0,0,.213-.213v-3.661c0-.615.239-.5.412-.219a10.038,10.038,0,0,1,1.005,4.181A3.231,3.231,0,0,1,310.64,1195.363Z" transform="translate(-663.222 714.238)" fill="#fff"/></g></svg>