<svg xmlns="http://www.w3.org/2000/svg" width="182" height="182" viewBox="0 0 182 182"><g transform="translate(962 -1869)"><text transform="translate(-962 2032)" fill="#ff3c3c" font-size="14" font-family="Roboto-Bold, Roboto" font-weight="700" letter-spacing="0.2em"><tspan x="67.777" y="15">Q &amp; A</tspan></text><g transform="translate(-1170.085 86.987)"><path d="M227.861,1899.305a.379.379,0,0,0,.224-.042,33.264,33.264,0,0,0,7.056-1.218l.56,4.158a34.679,34.679,0,0,1-7.812,1.219l.084,10.165.14.084.084.042a31.294,31.294,0,0,1,8.008,5.167l-2.324,4.327a58.332,58.332,0,0,0-5.88-4.747c0,4.873-1.876,6.932-6.328,6.932a8.651,8.651,0,0,1-5.768-2.185,6.242,6.242,0,0,1-1.82-4.621,5.443,5.443,0,0,1,1.96-4.074c1.708-1.513,3.444-2.059,6.3-2.059h.336l.224.042a7.212,7.212,0,0,1,.812.084l-.2-22.222H227.8Zm-4.116,17.18a6.032,6.032,0,0,0-1.6-.252c-2.52.084-3.724.883-3.724,2.437s1.316,2.646,3.136,2.646c1.568,0,2.184-.881,2.184-3.024Z" fill="#292929"/><path d="M258.325,1926.441a201.573,201.573,0,0,0-12.852-15.711c-1.036-1.175-1.428-1.931-1.428-2.814,0-1.092.448-1.806,2.408-3.822a96.917,96.917,0,0,0,10.92-13.737l3.64,2.815a108.072,108.072,0,0,1-10.78,12.854c-.784.756-1.036,1.218-1.036,1.764,0,.63.224.925,1.68,2.4a144.324,144.324,0,0,1,11.172,12.938Z" fill="#292929"/><path d="M279.97,1900.48c-.112,1.765-.14,2.311-.2,3.992a12,12,0,0,1,3.3-.5c.168-.757.252-1.219.448-2.353l3.584,1.05c-.168.841-.252,1.219-.336,1.6l-.056.252c3.836,1.3,6.076,4.747,6.076,9.367,0,5.5-2.8,9.7-8.26,12.392l-2.744-3.066a12.057,12.057,0,0,0,5.348-4.243,8.575,8.575,0,0,0,1.428-5.041c0-2.857-1.008-5.04-2.744-6.007-1.54,5.125-3.556,9.032-6.132,11.931.14,1.553.224,2.226.364,3.15l-3.3,1.218c-.168-1.176-.168-1.3-.2-1.554-1.568,1.218-2.576,1.638-3.78,1.638-2.212,0-3.584-2.016-3.584-5.251,0-4.326,1.82-8.276,5.4-11.72a15.341,15.341,0,0,1,1.4-1.134c.028-1.848.084-3.529.168-6.133-1.2.126-3.444.252-4.956.252l-.252-4.159,1.12.042h.476c1.428,0,2.324-.042,3.808-.126.112-2.184.2-3.318.392-5.923l4,.336c-.168,1.722-.308,3.4-.448,5.167a48.532,48.532,0,0,0,7.42-1.638l.308,4.2a71.727,71.727,0,0,1-8.008,1.47Zm-6.86,17.77c0,1.092.252,1.639.728,1.639.5,0,1.232-.42,2.352-1.429-.14-2.9-.2-4.537-.224-7.646A13.248,13.248,0,0,0,273.11,1918.25Zm6.272-3.948a38.154,38.154,0,0,0,2.8-6.932,9.276,9.276,0,0,0-2.688.714C279.438,1909.513,279.382,1912.369,279.382,1914.3Z" fill="#292929"/><path d="M309.985,1925.392a7.877,7.877,0,0,1-4.816-1.471,5.75,5.75,0,0,1-2.408-4.705c0-2.857,2.492-5.082,5.628-5.082,3.22,0,5.545,1.973,6.693,5.671,1.2-1.3,1.763-3.194,1.763-5.966,0-3.654-1.988-5.755-5.376-5.755-3.08,0-6.272,1.807-9.688,5.545l-2.856-2.815c2.744-3.066,4.732-5.46,10.724-12.937.588-.757,1.121-1.387,1.6-1.975a54.106,54.106,0,0,1-8.9,1.134l-.615-4.074a79.1,79.1,0,0,0,13.3-1.219l2.3,2.941-9.8,11.342a10.275,10.275,0,0,1,5.348-1.428c5.152,0,8.428,3.654,8.428,9.41,0,3.906-1.148,6.846-3.443,8.653a11.806,11.806,0,0,1-7.645,2.731h-.224Zm0-3.446a5.854,5.854,0,0,0,2.325-.42c-.812-2.688-2.1-4.032-3.781-4.032a1.81,1.81,0,0,0-1.848,1.933c0,1.469,1.008,2.393,2.744,2.477A4.323,4.323,0,0,0,309.985,1921.946Z" fill="#292929"/><path d="M330.678,1920.141v-16.005a13.158,13.158,0,0,1-.925,1.008l-2.436-3.067c1.513-1.47,2.157-3.276,2.157-5.923V1890.9l.5-.042a36.661,36.661,0,0,0,8.064-1.47L340,1892.5a54.211,54.211,0,0,1-7,1.26v1.722h6.721v3.235h-1.989v4.663h3.892l-2.408-1.681c1.149-1.722,1.54-3.276,1.54-6.175V1890.9l.505-.042a35.181,35.181,0,0,0,8.316-1.848l2.3,3.234a46.317,46.317,0,0,1-6.832,1.387l-.84.168v1.68h8.652v3.235h-3.781v4.663h1.4v16.761h-5.657a73.957,73.957,0,0,1,8.624,3.57l-2.828,3.612a67.851,67.851,0,0,0-9.212-4.7l2.409-2.478h-7.56l2.771,2.52a38.921,38.921,0,0,1-9.239,4.831l-2.549-3.7a29.174,29.174,0,0,0,8.568-3.654Zm2.128-21.424a10.985,10.985,0,0,1-1.6,4.663h2.969v-4.663Zm1.876,7.435v1.932h11.675v-1.932Zm0,6.469h11.675v-1.975H334.682Zm0,4.663h11.675v-2.142H334.682Zm10.779-13.9v-4.663h-1.427a9.283,9.283,0,0,1-1.569,4.663Z" fill="#292929"/><path d="M370.241,1905.312H363.3v21.717h-3.863v-36.042h10.807Zm-6.944-8.528h3.3v-2.6h-3.3Zm0,5.545h3.3v-2.772h-3.3Zm13.5,18.106h-7.56v2.436h-3.64v-14.535h11.2Zm-7.56-3.487H373.1v-5.167h-3.865Zm13.944,6.175c0,2.6-.84,3.528-3.3,3.528-1.009,0-2.437-.084-3.473-.168l-.868-4.41a23.314,23.314,0,0,0,2.8.252c.756,0,.98-.252.98-1.051v-15.962H372.2v-14.325h10.975Zm-7.364-28.943v2.6h3.5v-2.6Zm0,5.377v2.772h3.5v-2.772Z" fill="#292929"/></g><g transform="translate(-1374.496 1573.301)" fill="none"><path d="M523.98,295.7H483.017a8.04,8.04,0,0,0-6.962,4.02l-20.481,35.475a8.04,8.04,0,0,0,0,8.039l20.481,35.475a8.04,8.04,0,0,0,6.962,4.02H523.98a8.04,8.04,0,0,0,6.962-4.02l20.481-35.475a8.04,8.04,0,0,0,0-8.039l-20.481-35.475A8.04,8.04,0,0,0,523.98,295.7Z" stroke="none"/><path d="M 483.0167236328125 298.6990051269531 C 481.2222290039062 298.6990051269531 479.550048828125 299.6644897460938 478.6527709960938 301.2186889648438 L 458.1713256835938 336.6935119628906 C 457.2739868164062 338.2477111816406 457.2739868164062 340.1786804199219 458.1713256835938 341.7328796386719 L 478.6527709960938 377.2077026367188 C 479.550048828125 378.7619018554688 481.2222290039062 379.7273864746094 483.0167236328125 379.7273864746094 L 523.98046875 379.7273864746094 C 525.7749633789062 379.7273864746094 527.4471435546875 378.7619018554688 528.344482421875 377.2077026367188 L 548.8258056640625 341.7328186035156 C 549.72314453125 340.1786499023438 549.72314453125 338.2477416992188 548.8258056640625 336.6935119628906 L 528.344482421875 301.2187194824219 C 527.4471435546875 299.6644897460938 525.7749633789062 298.6990051269531 523.98046875 298.6990051269531 L 483.0167236328125 298.6990051269531 M 483.0167236328125 295.6990051269531 L 523.98046875 295.6990051269531 C 526.8525390625 295.6990051269531 529.5065307617188 297.2315063476562 530.9425659179688 299.7186889648438 L 551.4238891601562 335.1935119628906 C 552.8599243164062 337.6806945800781 552.8599243164062 340.7456970214844 551.4238891601562 343.2328796386719 L 530.9425659179688 378.7077026367188 C 529.5065307617188 381.1948852539062 526.8525390625 382.7273864746094 523.98046875 382.7273864746094 L 483.0167236328125 382.7273864746094 C 480.1446533203125 382.7273864746094 477.4906616210938 381.1948852539062 476.0546875 378.7077026367188 L 455.5732421875 343.2328796386719 C 454.1372680664062 340.7456970214844 454.1372680664062 337.6806945800781 455.5732421875 335.1935119628906 L 476.0546875 299.7186889648438 C 477.4906616210938 297.2315063476562 480.1446533203125 295.6990051269531 483.0167236328125 295.6990051269531 Z" stroke="none" fill="#ff3c3c"/></g><path d="M441.8,1195.475a9.339,9.339,0,0,1-6.538,9.434l-.3,3.433a.424.424,0,0,1-.676.3l-3.615-2.707a28.2,28.2,0,0,1-2.968.151c-7.784,0-14.095-2.811-14.095-10.612s6.31-10.612,14.095-10.612S441.8,1187.674,441.8,1195.475Zm-16.767-12.193a10.156,10.156,0,0,0,.1-1.448c0-6.241-5.048-8.49-11.276-8.49s-11.276,2.249-11.276,8.49a7.358,7.358,0,0,0,4.095,7.047l-.465,2.223a.424.424,0,0,0,.628.452l2.81-1.642a19.05,19.05,0,0,0,3.3.389C414.77,1186.274,418.94,1183.823,425.034,1183.282Z" transform="translate(-1293.585 722.32)" fill="#ff3c3c"/></g></svg>