<svg xmlns="http://www.w3.org/2000/svg" width="160.497" height="178.137" viewBox="0 0 160.497 178.137"><g transform="translate(665 -1869)"><path d="M57.055,6.708H54.007V15H51.956V6.708H48.948V5.047h8.107Zm8.768,6.241h-3.6L61.544,15H59.363l3.705-9.953h1.9L68.694,15H66.514Zm-3.042-1.661H65.27L64.019,7.563Zm12.76-.28-1.066,1.148V15H72.424V5.047h2.051V9.559l.9-1.237,2.536-3.274h2.522L76.9,9.47,80.538,15H78.1ZM90.1,10.687H86.162v2.666h4.621V15H84.111V5.047h6.658V6.708H86.162V9.08H90.1Zm19.149-.437a6.008,6.008,0,0,1-.52,2.577,3.913,3.913,0,0,1-1.487,1.709,4.393,4.393,0,0,1-4.426.007,3.951,3.951,0,0,1-1.5-1.7,5.836,5.836,0,0,1-.54-2.54V9.812a5.977,5.977,0,0,1,.53-2.587,3.945,3.945,0,0,1,1.5-1.716,4.387,4.387,0,0,1,4.423,0,3.945,3.945,0,0,1,1.5,1.716,5.96,5.96,0,0,1,.53,2.581ZM107.17,9.8a4.188,4.188,0,0,0-.561-2.379,1.98,1.98,0,0,0-3.192-.01,4.141,4.141,0,0,0-.567,2.355v.485a4.241,4.241,0,0,0,.561,2.365,1.963,1.963,0,0,0,3.2.031,4.216,4.216,0,0,0,.561-2.362Zm13.9-4.751V11.6a3.356,3.356,0,0,1-1.022,2.584,3.94,3.94,0,0,1-2.792.95,3.984,3.984,0,0,1-2.769-.923,3.3,3.3,0,0,1-1.046-2.536V5.047h2.051v6.569a1.9,1.9,0,0,0,.468,1.425,1.8,1.8,0,0,0,1.3.448q1.729,0,1.757-1.818V5.047Zm11.974,1.661H130V15h-2.051V6.708h-3.008V5.047h8.107Z" transform="translate(-676 2032)" fill="#59d821"/><g transform="translate(-891.812 151.824)"><path d="M240.784,1841.979c-.336,10.417-2.464,15.542-8.177,19.7L229,1858.361c5.264-3.906,6.943-7.728,7.14-16.382h-9.324v-4.327h22.68v4.327Zm5.208-14.493v4.327H230.256v-4.327Z" fill="#292929"/><path d="M270.547,1861.471h-4.759v-18.526a53.415,53.415,0,0,1-7.281,6.6l-2.883-4.2c5.879-3.571,12.235-11.175,16.52-19.828l4.283,1.931a64.381,64.381,0,0,1-5.88,9.62Z" fill="#292929"/><path d="M301.348,1831.267l1.736,2.394c-1.764,13.149-6.384,22.81-13.412,27.978l-3.528-3.488c6.44-4.788,10.64-12.686,11.928-22.431h-5.824a35.133,35.133,0,0,1-5.824,10.544l-3.36-3.278c3.444-3.948,6.216-10.291,7.728-17.81l4.312,1.05c-.476,1.932-.644,2.562-1.344,5.041Z" fill="#292929"/><path d="M332.652,1831.519c-2.072,5.922-4.452,10.627-6.776,13.442l-3.36-2.689a43.549,43.549,0,0,0,5.18-9.2l-17.416.672-.084-4.789,20.076-.378Zm-22.259,25.919a17.093,17.093,0,0,0,6.215-9.2c.588-2.437.812-5.629.812-11.678h4.48c0,7.057-.224,10.25-.98,13.442a20.416,20.416,0,0,1-6.888,10.964Z" fill="#292929"/><path d="M358.5,1832.4l2.323,2.438c-1.232,14.324-4.619,21.424-12.767,26.885l-3.781-3.362c7.393-4.326,11.033-11.173,11.508-21.423H344.413v8.7H339.96V1832.4h7.9v-6.8h4.48v6.8Z" fill="#292929"/><path d="M376.445,1837.232a78.831,78.831,0,0,1,10.864,8.024l-2.6,4.536a68.311,68.311,0,0,0-8.68-7.478v18.82h-4.564v-35.622h4.564v11.467Z" fill="#292929"/></g><path d="M523.979,295.7H483.016a8.039,8.039,0,0,0-6.962,4.02l-20.481,35.474a8.04,8.04,0,0,0,0,8.039l20.481,35.474a8.039,8.039,0,0,0,6.962,4.02h40.963a8.039,8.039,0,0,0,6.962-4.02l20.481-35.474a8.039,8.039,0,0,0,0-8.039l-20.481-35.474A8.039,8.039,0,0,0,523.979,295.7Z" transform="translate(-1088.496 1573.301)" fill="#59d821"/><g transform="translate(-599 1896.704)"><path d="M194.209,1183.758a1.059,1.059,0,0,0,1.059-1.059v-4.154h9.774v4.154a1.059,1.059,0,0,0,2.118,0v-4.789a1.484,1.484,0,0,0-1.482-1.482H194.632a1.484,1.484,0,0,0-1.482,1.482v4.789A1.059,1.059,0,0,0,194.209,1183.758Z" transform="translate(-186.066 -1176.427)" fill="#fff"/><path d="M202.326,1197.776a.847.847,0,0,0-.843-.761H179.545a.847.847,0,0,0-.842.761l-2.268,22.236a1.7,1.7,0,0,0,1.686,1.866h24.787a1.7,1.7,0,0,0,1.685-1.866Zm-15.45,12.6.124,6.256a.829.829,0,0,1-1.657,0h0l.124-6.255a3.23,3.23,0,0,1-2.222-3.37c0-2.12,1.31-4.811,2.926-4.811s2.926,2.69,2.926,4.811A3.23,3.23,0,0,1,186.876,1210.377Zm8.685-.02.125,6.275a.829.829,0,0,1-1.658,0h0l.124-6.275a3.23,3.23,0,0,1-2.222-3.37,10.034,10.034,0,0,1,1.006-4.18c.173-.28.411-.4.411.219v3.66a.214.214,0,0,0,.213.213h.5a.214.214,0,0,0,.213-.213v-3.735c0-.574.385-.775.587-.775s.587.2.587.775v3.735a.213.213,0,0,0,.213.213h.5a.213.213,0,0,0,.213-.213v-3.66c0-.615.239-.5.412-.219a10.034,10.034,0,0,1,1.005,4.18A3.23,3.23,0,0,1,195.561,1210.358Z" transform="translate(-176.426 -1188.295)" fill="#fff"/></g></g></svg>