<svg xmlns="http://www.w3.org/2000/svg" width="122.248" height="178.137" viewBox="0 0 122.248 178.137"><g transform="translate(241 -1869)"><path d="M74.253,12.389a1.052,1.052,0,0,0-.41-.892,5.38,5.38,0,0,0-1.477-.656,10.467,10.467,0,0,1-1.688-.68,2.759,2.759,0,0,1-1.7-2.468,2.4,2.4,0,0,1,.455-1.439,2.965,2.965,0,0,1,1.306-.988,4.914,4.914,0,0,1,1.911-.355,4.473,4.473,0,0,1,1.9.386,3.026,3.026,0,0,1,1.3,1.09,2.853,2.853,0,0,1,.461,1.6H74.259a1.342,1.342,0,0,0-.431-1.063,1.77,1.77,0,0,0-1.21-.379,1.891,1.891,0,0,0-1.169.318,1,1,0,0,0-.417.837.96.96,0,0,0,.489.813,5.522,5.522,0,0,0,1.439.615,6.217,6.217,0,0,1,2.55,1.306,2.6,2.6,0,0,1,.8,1.941,2.4,2.4,0,0,1-.978,2.027,4.279,4.279,0,0,1-2.632.735,5.082,5.082,0,0,1-2.092-.42,3.31,3.31,0,0,1-1.439-1.152,2.95,2.95,0,0,1-.5-1.7h2.058q0,1.647,1.969,1.647a1.915,1.915,0,0,0,1.142-.3A.967.967,0,0,0,74.253,12.389ZM88.6,15H86.548V10.734h-4V15H80.5V5.047h2.051V9.08h4V5.047H88.6Zm12.767-4.751a6.008,6.008,0,0,1-.52,2.577,3.913,3.913,0,0,1-1.487,1.709,4.393,4.393,0,0,1-4.426.007,3.951,3.951,0,0,1-1.5-1.7,5.836,5.836,0,0,1-.54-2.54V9.812a5.977,5.977,0,0,1,.53-2.587,3.945,3.945,0,0,1,1.5-1.716,4.387,4.387,0,0,1,4.423,0,3.945,3.945,0,0,1,1.5,1.716,5.96,5.96,0,0,1,.53,2.581ZM99.287,9.8a4.188,4.188,0,0,0-.561-2.379,1.98,1.98,0,0,0-3.192-.01,4.141,4.141,0,0,0-.567,2.355v.485a4.241,4.241,0,0,0,.561,2.365,1.963,1.963,0,0,0,3.2.031,4.216,4.216,0,0,0,.561-2.362Zm8.419,1.7V15h-2.051V5.047h3.883a4.492,4.492,0,0,1,1.972.41,3.022,3.022,0,0,1,1.309,1.166,3.25,3.25,0,0,1,.458,1.719,2.858,2.858,0,0,1-1,2.307,4.171,4.171,0,0,1-2.772.844Zm0-1.661h1.832a1.8,1.8,0,0,0,1.241-.383,1.392,1.392,0,0,0,.427-1.094,1.642,1.642,0,0,0-.431-1.183,1.609,1.609,0,0,0-1.189-.465h-1.88Z" transform="translate(-269 2032)" fill="#ff3c3c"/><g transform="translate(-486.936 276.26)"><path d="M271.08,1705.117v3.822H252.32v7.31c0,11.426-.756,16.467-3.276,21.844l-3.108-3.7c1.708-4.663,2.24-8.99,2.24-18.189v-11.09h9.24V1700.2H261.7v4.915Zm-.644,9.073v3.781h-7.9v4.327h6.916v15.711h-4.032v-1.849H257.08v1.849h-4V1722.3h5.264v-12.225h4.2v4.117Zm-13.356,18.19h8.344v-6.428H257.08Z" fill="#292929"/><path d="M295.384,1700.2h3.276v5.5h1.932l-.028-.084-.028-.126a20.252,20.252,0,0,0-1.232-3.907l2.52-1.428a19.139,19.139,0,0,1,1.6,4.032l-2.576,1.513h3.192v3.738H298.66v3.067h4.816v22.39c0,2.058-.56,2.773-2.212,2.773a13.025,13.025,0,0,1-1.96-.126l-.868-4.033v3.444H295.58v-8.191h-1.82v9.242h-3v-25.5h4.62v-3.067H290.4L289,1711.8a51.049,51.049,0,0,0-4.116-6.007l-.14-.168c-.56,1.26-.952,2.059-1.512,3.15H286.4v4.117h2.52v3.277H286.4v3.108h3.444v3.445H278.976v-3.445h4.2v-3.108h-2.8v-2.772a10.962,10.962,0,0,1-.98,1.259l-1.456-3.738a28.987,28.987,0,0,0,5.376-11.174l3.3,1.092c-.28.8-.336,1.008-.5,1.429l-.084.252a32.139,32.139,0,0,1,4.228,5V1705.7h5.124Zm-6.244,37.6h-3.164v-1.513H283.26v1.723h-3.22v-13.065h9.1Zm-5.964-28.9a38.018,38.018,0,0,1-2.436,3.991h2.436Zm.084,24.071h2.716v-4.831H283.26Zm10.5-17.055v3.15h1.82v-3.15Zm0,6.343v3.318h1.82v-3.318Zm4.676-3.193h1.9v-3.15h-1.9Zm0,6.511h1.9v-3.318h-1.9Zm0,7.94a6.782,6.782,0,0,0,1.26.168c.5,0,.644-.21.644-.882v-4.033h-1.9Z" fill="#292929"/><path d="M311.121,1733.556a58.557,58.557,0,0,0,.923-9.914l2.94.5a83.507,83.507,0,0,1-.923,11.3Zm4.423-12.182a.787.787,0,0,0-.279.042c-.925.126-1.681.21-3.361.378l-.644-4.033,1.6-.042c.644-1.05,1.26-2.143,1.849-3.193l-.252-.546a36.51,36.51,0,0,0-3.137-5.628l1.96-3.025c.449.714.588.924.756,1.176l.168-.378a42.5,42.5,0,0,0,2.1-6.049l3.221,1.974a69.7,69.7,0,0,1-3.781,7.477,14.87,14.87,0,0,1,.812,1.6c1.316-2.6,2.016-4.033,2.912-6.133l2.856,2.1a62.225,62.225,0,0,1-6.02,10.46c1.2-.084,2.1-.168,3.053-.252a21.517,21.517,0,0,0-.812-3.067l2.323-1.049a50.029,50.029,0,0,1,2.073,8.233l-2.717,1.218c-.084-.5-.112-.8-.2-1.26v-.21l-.084-.547-.336.084-.335.042-.393.084v17.182h-3.332Zm4.621,12.056a68.185,68.185,0,0,0-1.261-9.493l2.576-1.009A71.109,71.109,0,0,1,323.1,1732Zm9.8-26.969c-.476,6.259-2.155,10.544-5.208,13.316l-2.492-3.108c2.436-2.143,3.724-5.335,4.089-10.208h-3.416V1702.6h13.327a123.706,123.706,0,0,1-.476,13.316c-.364,2.058-1.371,2.9-3.415,2.9a26.792,26.792,0,0,1-2.969-.21l-.5-3.908a10.529,10.529,0,0,0,2.184.336c.812,0,1.064-.336,1.232-1.511.141-.967.336-4.538.364-7.058Zm5.46,31.548h-3.668v-2.1h-4.172v2.1H323.86v-17.1h11.564Zm-7.84-6.049h4.172v-7.268h-4.172Z" fill="#292929"/><path d="M362.024,1737.631H357.74v-22.012h3.92a32.073,32.073,0,0,1-6.664-9.158,27.946,27.946,0,0,1-5.8,9.662h3.864V1721c0,4.956-.224,7.1-1.008,9.577a15.037,15.037,0,0,1-5.236,7.688l-2.884-3.571c3.5-2.52,4.928-6.343,4.928-13.106V1716.5a27.137,27.137,0,0,1-4.48,3.78l-2.324-3.99c4.872-2.94,8.68-8.317,10.7-15.081h4.228a30.69,30.69,0,0,0,11.2,13.82l-2.128,4.411a43.213,43.213,0,0,1-4.032-3.486Z" fill="#292929"/></g><g transform="translate(-366 -3)"><path d="M523.979,295.7H483.016a8.039,8.039,0,0,0-6.962,4.02l-20.481,35.474a8.04,8.04,0,0,0,0,8.039l20.481,35.474a8.039,8.039,0,0,0,6.962,4.02h40.963a8.039,8.039,0,0,0,6.962-4.02l20.481-35.474a8.039,8.039,0,0,0,0-8.039l-20.481-35.474A8.039,8.039,0,0,0,523.979,295.7Z" transform="translate(-315.496 1576.301)" fill="#ff3c3c"/><g transform="translate(172.162 1902.147)"><path d="M31.021,8.8V27.189H22.975V16.021H16.517V27.189h-2V16.021H8.068V27.189H0V8.8a.847.847,0,0,1,.847-.847H30.174A.847.847,0,0,1,31.021,8.8Zm0-8.8H0V5.832H31.021Z" fill="#fff"/></g></g></g></svg>