<svg xmlns="http://www.w3.org/2000/svg" width="82" height="72.816" viewBox="0 0 82 72.816">
  <g id="グループ_2837" data-name="グループ 2837" transform="translate(227 -1869)">
    <g id="グループ_2748" data-name="グループ 2748" transform="translate(-227 1869)">
      <path id="パス_410" data-name="パス 410" d="M512.633,295.7H478.359a6.727,6.727,0,0,0-5.825,3.363L455.4,328.744a6.727,6.727,0,0,0,0,6.727l17.137,29.682a6.727,6.727,0,0,0,5.825,3.363h34.274a6.727,6.727,0,0,0,5.825-3.363l17.137-29.682a6.727,6.727,0,0,0,0-6.727l-17.137-29.682A6.727,6.727,0,0,0,512.633,295.7Z" transform="translate(-454.496 -295.699)" fill="#ff3c3c"/>
      <g id="レイヤー_2" data-name="レイヤー 2" transform="translate(27.747 25.224)">
        <g id="レイヤー_1" data-name="レイヤー 1">
          <path id="パス_419" data-name="パス 419" d="M25.956,7.363V22.749H19.223V13.4h-5.4v9.344H12.143V13.4H6.75v9.344H0V7.363a.709.709,0,0,1,.709-.709H25.247A.709.709,0,0,1,25.956,7.363Zm0-7.363H0V4.879H25.956Z" fill="#fff"/>
        </g>
      </g>
    </g>
  </g>
</svg>
