<svg xmlns="http://www.w3.org/2000/svg" width="81.996" height="72.812" viewBox="0 0 81.996 72.812">
  <g id="グループ_2857" data-name="グループ 2857" transform="translate(634 -1869)">
    <path id="パス_410" data-name="パス 410" d="M512.63,295.7H478.358a6.726,6.726,0,0,0-5.825,3.363L455.4,328.742a6.726,6.726,0,0,0,0,6.726l17.136,29.68a6.726,6.726,0,0,0,5.825,3.363H512.63a6.726,6.726,0,0,0,5.825-3.363l17.136-29.68a6.726,6.726,0,0,0,0-6.726l-17.136-29.68A6.726,6.726,0,0,0,512.63,295.7Z" transform="translate(-1088.496 1573.301)" fill="#59d821"/>
    <g id="グループ_2607" data-name="グループ 2607" transform="translate(-604.717 1892.179)">
      <path id="パス_392" data-name="パス 392" d="M194.036,1182.561a.886.886,0,0,0,.886-.886V1178.2H203.1v3.475a.886.886,0,1,0,1.772,0v-4.007a1.242,1.242,0,0,0-1.24-1.24h-9.24a1.242,1.242,0,0,0-1.24,1.24v4.007A.886.886,0,0,0,194.036,1182.561Z" transform="translate(-187.223 -1176.427)" fill="#fff"/>
      <path id="パス_393" data-name="パス 393" d="M198.1,1197.652a.709.709,0,0,0-.705-.637H179.036a.709.709,0,0,0-.7.637l-1.9,18.6a1.418,1.418,0,0,0,1.41,1.562h20.739a1.418,1.418,0,0,0,1.41-1.562Zm-12.926,10.543.1,5.234a.693.693,0,0,1-1.387,0h0l.1-5.234a2.7,2.7,0,0,1-1.859-2.82c0-1.774,1.1-4.025,2.448-4.025s2.448,2.251,2.448,4.025A2.7,2.7,0,0,1,185.17,1208.195Zm7.266-.016.1,5.25a.694.694,0,0,1-1.387,0h0l.1-5.25a2.7,2.7,0,0,1-1.859-2.82,8.4,8.4,0,0,1,.841-3.5c.145-.234.344-.332.344.183v3.062a.179.179,0,0,0,.178.178h.416a.179.179,0,0,0,.178-.178v-3.125c0-.48.322-.649.491-.649s.491.168.491.649v3.125a.179.179,0,0,0,.178.178h.415a.179.179,0,0,0,.178-.178v-3.062c0-.515.2-.417.344-.183a8.394,8.394,0,0,1,.841,3.5A2.7,2.7,0,0,1,192.436,1208.178Z" transform="translate(-176.426 -1189.719)" fill="#fff"/>
    </g>
  </g>
</svg>
