<svg xmlns="http://www.w3.org/2000/svg" width="82" height="72.816" viewBox="0 0 82 72.816">
  <g id="グループ_2711" data-name="グループ 2711" transform="translate(307 -1970)">
    <path id="パス_405" data-name="パス 405" d="M512.633,295.7H478.359a6.727,6.727,0,0,0-5.825,3.363L455.4,328.744a6.727,6.727,0,0,0,0,6.727l17.137,29.682a6.727,6.727,0,0,0,5.825,3.363h34.274a6.727,6.727,0,0,0,5.825-3.363L535.6,335.47a6.727,6.727,0,0,0,0-6.727l-17.137-29.682A6.727,6.727,0,0,0,512.633,295.7Z" transform="translate(-761.496 1674.301)" fill="#ff9c15"/>
    <path id="パス_406" data-name="パス 406" d="M309.017,1183.453h-15.81a1.417,1.417,0,0,0-1.417,1.417V1202.1h-1.2v-12.963a.709.709,0,0,0-.709-.709h-5.857a.874.874,0,0,0-.673.316l-4.922,6.87a.873.873,0,0,0-.2.561v9.177a.877.877,0,0,0,.877.878h3.587a3.546,3.546,0,1,0,7.092,0h9.1a3.546,3.546,0,1,0,7.092,0h3.406a1.063,1.063,0,0,0,1.063-1.063V1202.1h0V1184.87A1.417,1.417,0,0,0,309.017,1183.453Zm-21.265,13a.354.354,0,0,1-.354.354h-5.651a.354.354,0,0,1-.288-.561l3.466-4.838a.355.355,0,0,1,.288-.148H287.4a.354.354,0,0,1,.354.354Zm10.316-3.024.1,5.234a.693.693,0,1,1-1.387,0h0l.1-5.233a2.7,2.7,0,0,1-1.859-2.819c0-1.774,1.1-4.025,2.448-4.025s2.448,2.251,2.448,4.025A2.7,2.7,0,0,1,298.068,1193.429Zm7.265-.016.1,5.25a.693.693,0,0,1-1.387,0h0l.1-5.249a2.7,2.7,0,0,1-1.859-2.82,8.4,8.4,0,0,1,.841-3.5c.145-.234.344-.331.344.183v3.062a.178.178,0,0,0,.178.178h.416a.178.178,0,0,0,.178-.178v-3.125c0-.481.322-.649.491-.649s.491.168.491.649v3.125a.178.178,0,0,0,.178.178h.415a.178.178,0,0,0,.178-.178v-3.062c0-.515.2-.417.344-.183a8.4,8.4,0,0,1,.841,3.5A2.7,2.7,0,0,1,305.334,1193.414Z" transform="translate(-559.996 810.091)" fill="#fff"/>
  </g>
</svg>
