<svg xmlns="http://www.w3.org/2000/svg" width="21.37" height="27.871" viewBox="0 0 21.37 27.871"><path d="M61.623,1.18C59.708,2.422,59.331,6.3,60.054,9.469a28.58,28.58,0,0,0,3.779,8.882A29.681,29.681,0,0,0,70.4,25.423c2.594,1.95,6.292,3.19,8.207,1.948a9.7,9.7,0,0,0,2.473-2.652l-1.029-1.586-2.829-4.362c-.21-.324-1.529-.028-2.2.351a6.377,6.377,0,0,0-1.735,1.885c-.619.358-1.138,0-2.222-.5-1.332-.613-2.83-2.518-4.023-4.243-1.089-1.792-2.217-3.937-2.234-5.4-.013-1.193-.127-1.812.452-2.232a6.377,6.377,0,0,0,2.429-.816c.62-.457,1.428-1.54,1.217-1.864L66.081,1.59,65.052,0A9.7,9.7,0,0,0,61.623,1.18Z" transform="translate(-59.712 0.001)" fill="#fff"/></svg>