<svg xmlns="http://www.w3.org/2000/svg" width="22" height="26.222" viewBox="0 0 22 26.222"><path d="M194.2,1183.721a1.054,1.054,0,0,0,1.054-1.054v-4.133h9.725v4.133a1.054,1.054,0,1,0,2.107,0V1177.9a1.477,1.477,0,0,0-1.475-1.475h-10.99a1.477,1.477,0,0,0-1.475,1.475v4.766A1.054,1.054,0,0,0,194.2,1183.721Z" transform="translate(-189.12 -1176.427)" fill="#fff"/><path d="M196.649,1197.552a.641.641,0,0,0-.658-.537H178.861a.64.64,0,0,0-.658.537l-1.771,15.691a1.249,1.249,0,0,0,1.316,1.317H197.1a1.249,1.249,0,0,0,1.316-1.317Zm-12.063,8.892.1,4.415a.65.65,0,0,1-1.294,0h0l.1-4.414a2.3,2.3,0,0,1-1.735-2.378c0-1.5,1.023-3.395,2.285-3.395s2.285,1.9,2.285,3.395A2.3,2.3,0,0,1,184.586,1206.444Zm6.781-.014.1,4.428a.651.651,0,0,1-1.294,0h0l.1-4.428a2.3,2.3,0,0,1-1.735-2.378,6.532,6.532,0,0,1,.785-2.949c.135-.2.321-.28.321.155v2.583a.159.159,0,0,0,.166.15h.388a.159.159,0,0,0,.166-.15V1201.2a.465.465,0,1,1,.916,0v2.636a.159.159,0,0,0,.166.15h.388a.159.159,0,0,0,.166-.15v-2.583c0-.434.187-.352.321-.155a6.531,6.531,0,0,1,.785,2.949A2.3,2.3,0,0,1,191.367,1206.43Z" transform="translate(-176.426 -1188.338)" fill="#fff"/></svg>