<svg xmlns="http://www.w3.org/2000/svg" width="82.216" height="73.008" viewBox="0 0 82.216 73.008">
  <g id="グループ_3078" data-name="グループ 3078" transform="translate(-5235 -93)">
    <g id="パス_404" data-name="パス 404" transform="translate(4780.504 -202.699)" fill="#fff">
      <path d="M 512.7864379882812 367.2069702148438 L 478.4220581054688 367.2069702148438 C 476.5545654296875 367.2069702148438 474.8143920898438 366.2022399902344 473.880615234375 364.5848693847656 L 456.6988525390625 334.8250732421875 C 455.7650451660156 333.2077331542969 455.7650451660156 331.1982727050781 456.6988525390625 329.5808715820312 L 473.880615234375 299.8211059570312 C 474.8143920898438 298.2037658691406 476.5545654296875 297.1990356445312 478.4220581054688 297.1990356445312 L 512.7864379882812 297.1990356445312 C 514.6539306640625 297.1990356445312 516.3941650390625 298.2037658691406 517.3280639648438 299.8211669921875 L 534.5097045898438 329.5808715820312 C 535.4434204101562 331.1982421875 535.4434204101562 333.2077331542969 534.5096435546875 334.8250732421875 L 517.3280029296875 364.5848999023438 C 516.3941650390625 366.2022094726562 514.6539306640625 367.2069702148438 512.7864379882812 367.2069702148438 Z" stroke="none"/>
      <path d="M 478.4220581054688 298.6990356445312 C 477.0887451171875 298.6990356445312 475.8463134765625 299.4163818359375 475.1796264648438 300.5711059570312 L 457.9978637695312 330.330810546875 C 457.3311767578125 331.4856262207031 457.3311767578125 332.9203491210938 457.9978637695312 334.0750732421875 L 475.1795654296875 363.8348083496094 C 475.8463134765625 364.9895935058594 477.0887451171875 365.7069702148438 478.4220581054688 365.7069702148438 L 512.7864379882812 365.7069702148438 C 514.1197509765625 365.7069702148438 515.3623046875 364.9895629882812 516.0289916992188 363.8348693847656 L 533.2106323242188 334.0751037597656 C 533.8773193359375 332.9203491210938 533.8773193359375 331.4856262207031 533.2106323242188 330.3308410644531 L 516.029052734375 300.5712280273438 C 515.3623046875 299.4164123535156 514.1197509765625 298.6990356445312 512.7864379882812 298.6990356445312 L 478.4220581054688 298.6990356445312 M 478.4220581054688 295.6990356445312 L 512.7864379882812 295.6990356445312 C 515.1958618164062 295.6990356445312 517.4223022460938 296.9845886230469 518.6270751953125 299.0711059570312 L 535.8087158203125 328.8308715820312 C 537.0133056640625 330.9173889160156 537.0133056640625 333.4886169433594 535.8087158203125 335.5750732421875 L 518.6270751953125 365.3348693847656 C 517.4223022460938 367.42138671875 515.1958618164062 368.7069702148438 512.7864379882812 368.7069702148438 L 478.4220581054688 368.7069702148438 C 476.0126953125 368.7069702148438 473.7862548828125 367.42138671875 472.58154296875 365.3348693847656 L 455.3997802734375 335.5750732421875 C 454.1951904296875 333.4886169433594 454.1951904296875 330.9173889160156 455.3997802734375 328.8308715820312 L 472.58154296875 299.0711059570312 C 473.7862548828125 296.9845886230469 476.0126953125 295.6990356445312 478.4220581054688 295.6990356445312 Z" stroke="none" fill="#ff3c3c"/>
    </g>
    <path id="パス_407" data-name="パス 407" d="M541.075,1184.192l-5.738-5.738a1.421,1.421,0,0,0-1-.416H522.658a1.421,1.421,0,0,0-1.421,1.422v23.487a1.421,1.421,0,0,0,1.421,1.421H540.07a1.421,1.421,0,0,0,1.421-1.421V1185.2A1.42,1.42,0,0,0,541.075,1184.192Zm-16.988-.285h4.77a.533.533,0,0,1,0,1.066h-4.77a.533.533,0,1,1,0-1.066Zm0,7.334h10.5a.533.533,0,1,1,0,1.066h-10.5a.533.533,0,1,1,0-1.066Zm0,3.782h6.033a.533.533,0,1,1,0,1.066h-6.033a.533.533,0,1,1,0-1.066Zm12.208,4.847H524.088a.533.533,0,1,1,0-1.066H536.3a.533.533,0,1,1,0,1.066Zm-1.481-14.546a.711.711,0,0,1-.711-.711v-4.828l5.539,5.539Z" transform="translate(4744.802 -1061.433)" fill="#ff3c3c"/>
  </g>
</svg>
