<svg xmlns="http://www.w3.org/2000/svg" width="26" height="21.142" viewBox="0 0 26 21.142"><path d="M24.861,0H12.1a1.141,1.141,0,0,0-1.144,1.139V14.977h-.97V4.554a.571.571,0,0,0-.572-.569H4.683a.7.7,0,0,0-.544.253L.163,9.768a.7.7,0,0,0-.163.45V17.59a.708.708,0,0,0,.709.706H3.6a2.861,2.861,0,0,0,5.721,0h7.346a2.861,2.861,0,0,0,5.721,0h2.749A.856.856,0,0,0,26,17.442V14.977h0V1.139A1.141,1.141,0,0,0,24.861,0ZM7.7,10.443a.285.285,0,0,1-.286.285H2.861a.285.285,0,0,1-.235-.45l2.8-3.888a.287.287,0,0,1,.235-.117H7.409a.285.285,0,0,1,.286.285Zm8.321-2.431.083,4.2a.568.568,0,0,1-.239.592.575.575,0,0,1-.641,0,.568.568,0,0,1-.239-.592h0l.083-4.2a2.17,2.17,0,0,1-1.5-2.263c0-1.423.884-3.233,1.977-3.233s1.974,1.807,1.974,3.233A2.167,2.167,0,0,1,16.019,8.012Zm5.864,0,.086,4.215a.573.573,0,0,1-1.121,0h0l.086-4.215a2.183,2.183,0,0,1-1.5-2.277,6.7,6.7,0,0,1,.681-2.809c.114-.188.286-.265.286.148V5.533a.142.142,0,0,0,.041.1.143.143,0,0,0,.1.043h.34a.146.146,0,0,0,.146-.145V3.023a.411.411,0,1,1,.792,0v2.51a.142.142,0,0,0,.041.1.143.143,0,0,0,.1.043H22.3a.143.143,0,0,0,.1-.043.142.142,0,0,0,.041-.1V3.074c0-.413.163-.336.286-.148a6.738,6.738,0,0,1,.678,2.809A2.205,2.205,0,0,1,21.886,8Z" transform="translate(0 0)" fill="#ff9c15"/></svg>