<svg xmlns="http://www.w3.org/2000/svg" width="303.934" height="84.819" viewBox="0 0 303.934 84.819"><g transform="translate(-0.066 0.002)"><path d="M649.173,423.215c12.037.752,17.236-.829,22.734-1.688-.3-.8-3.029-6.482-4.022-9.462-.964-2.807.068-9.78,3.607-12.018s6.887-1.64,10.253.222a14.8,14.8,0,0,1,4.552,4.138c1.833,2.363,7.137,9.51,7.137,9.51s2.045-.714,4.061-1.331a2.854,2.854,0,0,1,3.222,1.186,2.006,2.006,0,0,1-.83,3.463c-2.305.8-18.663,6.646-21.673,7.321-4.215.965-21.818,3.212-31.357,2.488a89.517,89.517,0,0,1-24.682-6c-4.823-2.074-10.783-4.514-12.876-5.681s-4.012-2.334-2.411-4.823a1.813,1.813,0,0,1,2.739-.656,103.123,103.123,0,0,0,13.378,7.244C630.365,420.379,637.136,422.463,649.173,423.215Zm32.533-4.552s-2.961-5.315-3.993-7.311-1.534-3.173-.646-3.6,1.784-.251,2.681,1.215,5.093,8.488,5.093,8.488a20.4,20.4,0,0,0,2.894-1.138c1.572-.762,2.6-1.35,2.6-1.35s-4.07-6.019-6.375-8.729-3.926-4.119-7.938-4.321-6.289,6.424-5.025,9.848,4.225,9.144,4.225,9.144a27.169,27.169,0,0,0,3.964-1.109A16.1,16.1,0,0,0,681.706,418.662Z" transform="translate(-528.026 -342.368)" fill="#ff3c3c"/><path d="M817.275,341.226c2.643-.164,3.414.858,4.176,2.566s14.082,27.74,14.94,29.7,1.62,2.652.6,4.7-15,25.743-16.223,27.923-2.006,2.952-4.389,3.067c-2.083.1-29.476.965-36.652.366a3.491,3.491,0,0,1-2.334-1.37c-1.129-1.862-15.731-28.338-16.686-30.44s-.646-2.845-.463-3.424c1.379-4.215,19.561-31.588,20.255-32.861a2.055,2.055,0,0,1,1.842-1.138C784.433,340.165,814.623,341.4,817.275,341.226Zm-2.5,4.823c-6.443-.473-27.007-.473-28.492-.53s-1.987,0-2.681,1.148c-1.833,3.019-13.667,21.924-16.3,26.254-1.755,2.894-.376,3.762,1.09,6.829s10.253,19.58,12.539,23.37a1.929,1.929,0,0,0,1.688,1.273c1.119.087,30.2-.212,31.357-.28a2.3,2.3,0,0,0,2.392-1.225c.791-1.157,13.108-21.142,15.114-25.521.694-1.524.424-1.514-.289-3.357s-12.211-24.354-13.706-26.785c-.193-.318-.675-1.186-2.71-1.215Z" transform="translate(-533.481 -340.3)" fill="#40210f"/><path d="M720.135,410.652a45.984,45.984,0,0,1-6.376-.694c-.617-.154-.087-1.37.27-2.151a65.7,65.7,0,0,0,2.373-7.417c.965-3.521,2.093-7.137,3.376-11.227s2.537-8.97,2.566-9.038c3.858-10.263,5.507-21.1,8.681-31.559.27-.907.415-1.794.6-2.739.116-.54.106-1.321.521-1.6s.964,0,1.437.2c1.37.646,3.193,1.485,4.562,2.141s1.119,1.36.6,2.72a113.315,113.315,0,0,0-4.5,14.969c-.685,2.894-1.543,5.729-2.431,8.941,1.273-.28,2.132-.482,2.98-.656,4.244-.878,9.356,2.942,9.858,7.263a39.046,39.046,0,0,1-.183,7.581c-.289,3.443-.569,9.848-.251,11.806s2.161,1.64,3.289-.965,3.125-9.057,3.318-9.761.424-.617,1.833.193a48.3,48.3,0,0,0,4.562,1.842c.7.193.511.569.251,1.264s-1.109,3.067-2.894,7.793a20.8,20.8,0,0,1-7.234,9.645,5.035,5.035,0,0,1-6.684-.743,13.686,13.686,0,0,1-3.521-11.237c.559-4.041.887-8.1,1.321-12.163.27-2.556-.482-3.964-2.44-4.62a1.813,1.813,0,0,0-.444-.135c-2.72-.28-7.784,2.691-8.353,5.122-.714,3.067-1.668,6.067-2.5,9.1-1.2,4.369-2.344,8.739-3.569,13.1C720.829,408.772,720.675,410.5,720.135,410.652Z" transform="translate(-531.828 -340.435)" fill="#40210f"/><path d="M580.106,404.438c2.44-2.209,4.823-4.176,6.935-6.4a82.622,82.622,0,0,0,5.864-7.1,27.908,27.908,0,0,0,3.212-5.855,34.86,34.86,0,0,0,2.556-11.111c.27-4.35,0-8.748-.154-13.118,0-1.514-.405-1.929-1.929-1.929-4.389-.087-8.777-.077-13.166,0-.386,0-1.485.087-2.074.135-.231,0-.386.241-.4.569,0,.916-.068,2.749-.145,3.559-.232,2.373-.27,4.765-.3,7.147v9.24c0,2.074.077,2.585-.964,2.652s-4.63.5-5.247.492-.559-.965-.569-1.514q-.174-12.655-.26-25.338c0-.685.087-1.379.106-2.064.068-2.054-.077-2.517,1.582-2.4s7.928.55,11.2.9a25.813,25.813,0,0,0,.183-4.678c-.067-1.389-.28-4.3-.357-5.266s0-1.514,1.157-1.553,4.726-.116,5.585-.27.965.068.965,1.456,0,5.218-.087,7.417a25.932,25.932,0,0,0,0,3.337c2.344.231,4.3.212,6.52.376,1.659.116,4.205.193,5.623.212s1.3.27,1.283,1.717c0,3.144.135,6.289,0,9.433a69.3,69.3,0,0,1-.849,9.163c-.6,3.4-.829,6.752-2.247,11.275a37.563,37.563,0,0,1-4.186,9.308,107.626,107.626,0,0,1-9.877,13.735c-.366.463-1.35,1.881-1.852,2.585s-.762.521-1.669-.125c-1.8-1.263-5.71-4.167-6.356-4.765S579.768,404.737,580.106,404.438Z" transform="translate(-526.862 -340.307)" fill="#40210f"/><path d="M690.324,369.869c-1.495,0-2.353.1-3.646.1s-1.823.1-1.929-1.273v-3.453c0-1.736-.232-1.833,1.032-1.669s3.607.116,4.688.338c.164-1.6.81-6.028.965-7.871-1.62.077-4.591.193-5.681.183s-.762-.878-.646-1.794.337-2.633.53-3.733,0-1.756,1.138-1.6a31.287,31.287,0,0,0,5.671.434c.366-2.324.656-4.591,1.1-6.838.347-1.784.193-1.833,2-1.534,1.2.193,3.714.28,4.63.405s.453,1.572.193,2.894a34.767,34.767,0,0,0-.8,4.871c1.592,0,5.006.125,5.913.087s1.206.212.964,1.177-.569,2.7-.752,3.52c-.328,1.563-.164,1.871-1.032,1.871s-4.7.087-6.655.087c-.415,2.72-.859,5.459-1.273,8.121,2.778-.135,7.321,0,8.517,0s1.022.4.743,2.035c-.116.685-.347,1.852-.55,2.894s-.366.965-1.2.965-5.787-.058-7.957-.116a40.747,40.747,0,0,0-.126,5.025,51.128,51.128,0,0,0,1.37,10.446c.829,2.807,4.823,4.717,7.273,2.334s3.414-7.456,3.7-9.558.492-2.652,1.418-2.218a19.656,19.656,0,0,0,3.357,1.138c1.273.27,1.061.772.656,2.074-.752,2.392-1.418,4.823-2.353,7.157-1.5,3.694-3.945,6.636-7.919,7.716-4.967,1.37-10-2.151-11.487-5.739s-1.929-9.308-1.929-12.7S690.373,370.544,690.324,369.869Z" transform="translate(-530.809 -340.325)" fill="#40210f"/><path d="M628.223,372.585c4.07-6.067,6.5-12.616,9.983-19.175-1.408,0-2.373-.058-3.337,0-5.054.309-16.1,1.428-17.361,1.5s-1.842.26-2.093-.858a48.929,48.929,0,0,1-.964-5.671,1.206,1.206,0,0,1,1.5-1.331c3.3.617,6.6.1,9.867,0,5.344-.2,10.677-.829,16.011-1.36,2.315-.222,2.489-.357,3.019.54a39.543,39.543,0,0,0,2.45,3.328,1.215,1.215,0,0,1,.164,1.563c-.347.656-1.263,2.016-1.63,2.73-3.6,7.051-6.974,14.207-10.783,21.142-1.437,2.614-1.871,2.894-.965,4.215s3.144,4.128,3.858,5.016c.367.453,2.238,2.286,2.373,3.067s-.4,1.09-1.051,1.514a36.329,36.329,0,0,0-4.118,3.376c-.7.7-.965.55-1.707-.637-3.115-5-7.282-9.124-11.063-13.571-1.582-1.862-3.193-3.713-4.726-5.623-1.013-1.264-.762-1.659.6-2.672a40.2,40.2,0,0,0,3.945-3.81c.492-.569.82-.222,1.514.82A39.358,39.358,0,0,0,628.223,372.585Z" transform="translate(-528.315 -340.485)" fill="#40210f"/><path d="M545.647,353.006v2.334l13.822-.376a.28.28,0,0,1,.289.28l-.116,2.951a.28.28,0,0,1-.28.26l-13.715-.357v2.691l12.4-.067a.27.27,0,0,1,.27.27v2.759a.26.26,0,0,1-.27.27l-11.246.068a18.2,18.2,0,0,0,6.549,4.977,28.346,28.346,0,0,0,5.189,1.62.27.27,0,0,1,.2.347l-.965,3.1a.26.26,0,0,1-.337.174c-1.215-.386-6.375-2.083-8.083-3.279a21.9,21.9,0,0,1-5.488-5.787,18.041,18.041,0,0,1-2.836,3.376,30.532,30.532,0,0,1-5.44,4.09,23.073,23.073,0,0,1-5.324,1.987.251.251,0,0,1-.3-.145,22.441,22.441,0,0,1-1.3-3.2A.28.28,0,0,1,528.9,371a14.776,14.776,0,0,0,7.629-2.894,20.027,20.027,0,0,0,4.3-4.311l-11.931.26a.27.27,0,0,1-.28-.27v-2.681a.27.27,0,0,1,.28-.27h13.233v-2.71l-14.034.087a.28.28,0,0,1-.28-.251l-.193-2.267a.27.27,0,0,1,.28-.3l14.227.289v-2.778l-10.976-.222a.26.26,0,0,1-.26-.28l.106-2.46a.26.26,0,0,1,.28-.26c1.109,0,5.44.145,7.176.174.752,0,3.694-.116,3.694-.116v-2.527c-2.006-.193-10.33,0-11.391-.077-.232,0-.28-.3-.3-.559s.077-1.524.087-1.881.405-.405.55-.4c2.025.164,4.331,0,6.279.183-.27-.772-1.206-2.845-1.591-3.713a.27.27,0,0,1,.251-.386l3.858.048a.27.27,0,0,1,.26.212l.859,3.52,6.993-.087,2.025-3.337a.28.28,0,0,1,.251-.135l3.723.28a.28.28,0,0,1,.2.434l-1.929,2.7,6.511-.058a.28.28,0,0,1,.28.289l-.183,2.488a.26.26,0,0,1-.27.251l-12.906-.077-.241,2.662,9.394-.212a.26.26,0,0,1,.28.28l-.048,2.382a.261.261,0,0,1-.241.26C553.691,352.389,548.02,352.861,545.647,353.006Z" transform="translate(-525.236 -340.303)" fill="#40210f"/><path d="M662.232,365.239s-4.331,3.955-6.028,5.43-2.71,2.479-3.106,2.064-2.247-2.99-3.357-4.7c-.6-.907,0-1.678.752-2.112,4.273-2.469,7.774-5.932,11.3-9.269,3.038-2.894,5.536-6.337,8.266-9.558.964-1.167,1.842-2.45,2.893-3.549,1.3-1.37,2.276-1.138,3.241.444.627,1.032,2.469,3.3,3.144,4.3.482.714-.357,1.129-.627,1.35-2.894,2.479-5.671,5.112-8.285,7.321a1.64,1.64,0,0,0-.791,1.688c0,3.231-.077,6.453,0,9.645.116,4.61.328,17.824.357,19.532s0,1.582-1.061,1.929-4.437.772-5.4.965c-1.476.338-1.727.135-1.8-1.64s.656-13.735.617-20.554C662.338,367.863,662.232,365.239,662.232,365.239Z" transform="translate(-529.559 -340.383)" fill="#40210f"/><path d="M543.507,399.511l-2.894-5.025s.145,4.389.28,5.922c.251,2.788.212,9.4.2,10.812a.27.27,0,0,1-.27.27h-2.315a.27.27,0,0,1-.27-.26c0-.685-.068-2.517-.1-3.279-.106-3.067.058-10.783.058-10.783a16.9,16.9,0,0,1-2.2,5.093,28.948,28.948,0,0,1-3.2,3.781.54.54,0,0,1-.8,0,5.636,5.636,0,0,1-.617-.868,8.776,8.776,0,0,1-1.563,3.4,14.684,14.684,0,0,1-1.784,2.257.27.27,0,0,1-.366,0l-2.373-2.112a.27.27,0,0,1,0-.386,18.517,18.517,0,0,0,3.569-6.646c1.418-4.524,1.263-13.156,1.263-15.375v-5.662a.27.27,0,0,1,.28-.27h12.124l.318-3.954a.27.27,0,0,1,.3-.251l2.72.251a.27.27,0,0,1,.251.28l-.106,3.636,12.722.222a.27.27,0,0,1,.27.309l-.309,2.527a.26.26,0,0,1-.289.231c-1.157-.077-5.855-.405-8.285-.4-4.543,0-9.086,0-13.629-.067h-3.164s-.087,12.028-1.157,17.94c2.6-.656,5.478-6.105,5.324-9.992a17.585,17.585,0,0,1-3.057.164.27.27,0,0,1-.27-.28l.058-1.678a.27.27,0,0,1,.26-.26c.675,0,2.546-.1,3.655-.1,0-.4-.058-2.951-.077-3.8a.28.28,0,0,1,.27-.28h2.652a.27.27,0,0,1,.28.28l-.174,3.6,3.752-.048a.28.28,0,0,1,.28.27l.058,1.8a.289.289,0,0,1-.28.289h-3.858l4.553,6.366a.28.28,0,0,1,0,.338l-1.582,1.842a.27.27,0,0,1-.511-.106Zm18.509,3.781a28.084,28.084,0,0,1-2.894-2.826,31.084,31.084,0,0,1-3.983-5.372,10.969,10.969,0,0,1-1.215-3.984h4.119a.289.289,0,0,0,.28-.289l-.135-2.488a.27.27,0,0,0-.3-.26l-4.514.386s.1-1.929,0-3.2a.27.27,0,0,0-.241-.251l-2.112-.27a.28.28,0,0,0-.318.251c-.087,1.495,0,3.6,0,3.6l-3.646.077a.27.27,0,0,0-.27.28l.068,1.929a.27.27,0,0,0,.28.27l3.038-.116s-1.312,3.723-2.662,7.234a16.4,16.4,0,0,1-3.858,5.681.27.27,0,0,0,0,.347l1.186,1.765a.27.27,0,0,0,.434,0c.473-.569,1.582-1.929,2.691-3.472a20.893,20.893,0,0,0,2.392-5.189l.193,13.3a.28.28,0,0,0,.289.26l2.44-.116a.28.28,0,0,0,.26-.28l-.26-13.706s3.627,6.462,6.424,9.182a.27.27,0,0,0,.386,0c.5-.511,1.524-1.852,1.929-2.373a.27.27,0,0,0,0-.367Z" transform="translate(-525.15 -341.573)" fill="#40210f"/><path d="M781.67,383.812c1.977-.405,3.54-.752,5.112-1.042.839-.154.916-.232.965.473a25.438,25.438,0,0,0,.376,4.2c.415,1.862,2.595,4.225,4.418,3.858s3.463-2.633,3.5-7.166-.887-5.112-1.524-6.019c-.521-.743-2.99-1.5-5.324-1.591-.627,0-.309-1.186-.309-1.833s.116-3.27.116-3.858.694-.492.829-.482c3.019.193,3.424,0,4.611-2.6a10.773,10.773,0,0,0,.087-8.044,3.5,3.5,0,0,0-4.128-1.659c-.964.434-1.823,2.894-2.315,3.916a7.005,7.005,0,0,0-.55,1.669.636.636,0,0,1-.82.482,33.238,33.238,0,0,1-3.858-1.273c-.5-.289-.531-.637-.357-1.148s.54-1.659.839-2.363c.675-1.591,1.042-3.3,2.257-4.726a9.579,9.579,0,0,1,3.482-2.537,5.9,5.9,0,0,1,5.315.164c4.35,2.218,6.347,5.9,6.684,10.61.164,2.276-1.129,8.247-4.823,10.61a6.752,6.752,0,0,1,3.1,1.688c1.755,1.5,2.2,8.131,1.987,12.365a12.617,12.617,0,0,1-1.061,4.379,11.468,11.468,0,0,1-4.514,5.324c-1.225.723-4.08,1.186-7.109.357a7.716,7.716,0,0,1-5.353-4.823C782.4,389.985,782.22,387.024,781.67,383.812Z" transform="translate(-534.248 -340.698)" fill="#40210f"/><path d="M815.134,397.449c-.964,0-4.475.077-5.623-.309-.289-.106-.482-.965-.453-1.427.116-2.209.511-12.452.6-15.365s.386-5.97.357-8.951c0-2.759.386-11.227.386-11.227s-2.73,1.09-4.408,1.736c-.212.077-.627-.116-.656-.28-.26-1.929-.849-3.858-.964-5.787,0-.347.386-.55.791-.733,1.167-.54,3.511-1.447,4.823-1.929.511-.193.714-.347.829-.357,1.254,0,3.858.077,4.62,0,.376,0,.617.463.617.965v14.024c0,5.681-.135,11.362-.183,17.053V395.23C815.906,395.934,816.07,397.449,815.134,397.449Z" transform="translate(-535.053 -340.744)" fill="#40210f"/></g></svg>