<svg xmlns="http://www.w3.org/2000/svg" width="150" height="41.86" viewBox="0 0 150 41.86"><g transform="translate(-0.066 0.002)"><path d="M627.445,410.744a39.268,39.268,0,0,0,11.214-.833c-.148-.395-1.494-3.2-1.984-4.667-.476-1.384.033-4.824,1.779-5.928a4.6,4.6,0,0,1,5.057.109,7.3,7.3,0,0,1,2.245,2.041c.9,1.166,3.521,4.691,3.521,4.691s1.009-.352,2-.657a1.407,1.407,0,0,1,1.589.585.99.99,0,0,1-.409,1.708c-1.137.395-9.206,3.278-10.69,3.611-2.079.476-10.762,1.584-15.467,1.228a44.16,44.16,0,0,1-12.175-2.959c-2.379-1.023-5.319-2.227-6.351-2.8s-1.979-1.151-1.189-2.379a.894.894,0,0,1,1.351-.323,50.851,50.851,0,0,0,6.6,3.573A33.884,33.884,0,0,0,627.445,410.744Zm16.047-2.246s-1.461-2.621-1.97-3.606-.757-1.565-.319-1.775.88-.124,1.323.6,2.512,4.187,2.512,4.187a10.058,10.058,0,0,0,1.427-.561c.775-.376,1.284-.666,1.284-.666s-2.008-2.969-3.145-4.306a4.726,4.726,0,0,0-3.915-2.131c-1.979-.1-3.1,3.169-2.479,4.858s2.084,4.51,2.084,4.51a13.4,13.4,0,0,0,1.955-.547A7.946,7.946,0,0,0,643.492,408.5Z" transform="translate(-567.624 -370.844)" fill="#fff"/><path d="M788.275,340.756a1.76,1.76,0,0,1,2.06,1.266c.376.842,6.946,13.683,7.37,14.649s.8,1.308.3,2.317-7.4,12.7-8,13.773-.99,1.456-2.165,1.513c-1.027.048-14.539.476-18.079.181a1.722,1.722,0,0,1-1.151-.676c-.557-.918-7.76-13.978-8.231-15.015s-.319-1.4-.228-1.689c.68-2.079,9.648-15.581,9.991-16.209a1.014,1.014,0,0,1,.909-.561C772.075,340.232,786.966,340.841,788.275,340.756Zm-1.232,2.379c-3.178-.233-13.321-.233-14.054-.262s-.98,0-1.323.566c-.9,1.489-6.742,10.814-8.04,12.95-.866,1.427-.185,1.855.538,3.368s5.057,9.658,6.185,11.528a.952.952,0,0,0,.833.628c.552.043,14.9-.1,15.467-.138a1.132,1.132,0,0,0,1.18-.6c.39-.571,6.466-10.429,7.455-12.589.343-.752.209-.747-.143-1.656s-6.023-12.013-6.761-13.212c-.1-.157-.333-.585-1.337-.6Z" transform="translate(-648.175 -340.3)" fill="#fff"/><path d="M716.761,376.932a22.692,22.692,0,0,1-3.145-.342c-.3-.076-.043-.676.133-1.061a32.4,32.4,0,0,0,1.17-3.659c.476-1.737,1.033-3.521,1.665-5.538s1.251-4.425,1.266-4.458c1.9-5.062,2.716-10.41,4.282-15.567.133-.447.2-.885.295-1.351.057-.266.052-.652.257-.79s.476,0,.709.1c.676.319,1.575.733,2.25,1.056s.552.671.295,1.342a55.9,55.9,0,0,0-2.222,7.384c-.338,1.427-.761,2.826-1.2,4.41.628-.138,1.051-.238,1.47-.323a4.441,4.441,0,0,1,4.862,3.582,19.268,19.268,0,0,1-.09,3.739,39.489,39.489,0,0,0-.124,5.823c.157.966,1.066.809,1.622-.476s1.542-4.467,1.637-4.815.209-.3.9.1a23.822,23.822,0,0,0,2.25.909c.347.1.252.281.124.623s-.547,1.513-1.427,3.844a10.258,10.258,0,0,1-3.568,4.758,2.483,2.483,0,0,1-3.3-.366,6.751,6.751,0,0,1-1.737-5.543c.276-1.993.438-4,.652-6,.133-1.261-.238-1.955-1.2-2.279a.893.893,0,0,0-.219-.067c-1.342-.138-3.839,1.327-4.12,2.526-.352,1.513-.823,2.993-1.232,4.486-.59,2.155-1.156,4.31-1.76,6.461C717.1,376,717.027,376.855,716.761,376.932Z" transform="translate(-623.786 -342.297)" fill="#fff"/><path d="M576.743,372.031c1.2-1.09,2.379-2.06,3.421-3.159a40.763,40.763,0,0,0,2.893-3.5,13.771,13.771,0,0,0,1.584-2.888A17.2,17.2,0,0,0,585.9,357c.133-2.146,0-4.315-.076-6.47,0-.747-.2-.952-.951-.952-2.165-.043-4.33-.038-6.494,0-.19,0-.733.043-1.023.067-.114,0-.19.119-.195.281,0,.452-.033,1.356-.072,1.755-.114,1.17-.133,2.35-.147,3.525v4.558c0,1.023.038,1.275-.476,1.308s-2.284.247-2.588.243-.276-.476-.281-.747q-.086-6.242-.128-12.5c0-.338.043-.68.052-1.018.033-1.013-.038-1.242.78-1.185s3.911.271,5.524.442a12.733,12.733,0,0,0,.09-2.307c-.033-.685-.138-2.122-.176-2.6s0-.747.571-.766,2.331-.057,2.755-.133.476.033.476.718,0,2.574-.043,3.659a12.793,12.793,0,0,0,0,1.646c1.156.114,2.122.1,3.216.186.818.057,2.074.1,2.774.1s.642.133.633.847c0,1.551.067,3.1,0,4.653a34.187,34.187,0,0,1-.419,4.52,37.033,37.033,0,0,1-1.109,5.562,18.528,18.528,0,0,1-2.065,4.591,53.1,53.1,0,0,1-4.872,6.775c-.181.228-.666.928-.913,1.275s-.376.257-.823-.062c-.89-.623-2.817-2.055-3.135-2.35S576.577,372.178,576.743,372.031Z" transform="translate(-550.433 -340.399)" fill="#fff"/><path d="M687.491,355.248c-.737,0-1.161.048-1.8.048s-.9.048-.952-.628v-1.7c0-.856-.114-.9.509-.823s1.779.057,2.312.167c.081-.79.4-2.974.476-3.882-.8.038-2.265.1-2.8.09s-.376-.433-.319-.885.167-1.3.262-1.841,0-.866.561-.79a15.428,15.428,0,0,0,2.8.214c.181-1.147.323-2.265.542-3.373.171-.88.1-.9.985-.757.59.1,1.832.138,2.284.2s.224.775.1,1.427a17.142,17.142,0,0,0-.395,2.4c.785,0,2.469.062,2.917.043s.595.1.476.58-.281,1.332-.371,1.737c-.162.771-.081.923-.509.923s-2.317.043-3.283.043c-.2,1.342-.424,2.693-.628,4.006,1.37-.067,3.611,0,4.2,0s.5.2.366,1c-.057.338-.171.913-.271,1.427s-.181.476-.59.476-2.855-.029-3.925-.057a20.119,20.119,0,0,0-.062,2.479,25.217,25.217,0,0,0,.676,5.152c.409,1.384,2.379,2.326,3.587,1.151s1.684-3.678,1.827-4.715.243-1.308.7-1.094a9.7,9.7,0,0,0,1.656.561c.628.133.523.381.323,1.023-.371,1.18-.7,2.379-1.161,3.53a5.914,5.914,0,0,1-3.906,3.806,5.07,5.07,0,0,1-5.666-2.831,18.978,18.978,0,0,1-.952-6.266C687.453,356.418,687.515,355.581,687.491,355.248Z" transform="translate(-608.729 -340.676)" fill="#fff"/><path d="M621.238,358.87c2.008-2.993,3.207-6.223,4.924-9.458-.695,0-1.17-.029-1.646,0-2.493.152-7.941.7-8.564.737s-.909.128-1.032-.423a24.106,24.106,0,0,1-.476-2.8.595.595,0,0,1,.737-.656,22.494,22.494,0,0,0,4.867,0c2.636-.1,5.267-.409,7.9-.671,1.142-.109,1.228-.176,1.489.266a19.534,19.534,0,0,0,1.208,1.641.6.6,0,0,1,.081.771c-.171.324-.623.994-.8,1.346-1.775,3.478-3.44,7.008-5.319,10.429-.709,1.289-.923,1.427-.476,2.079s1.551,2.036,1.9,2.474c.181.224,1.1,1.128,1.17,1.513s-.2.538-.519.747a17.929,17.929,0,0,0-2.031,1.665c-.347.347-.476.271-.842-.314a58.453,58.453,0,0,0-5.457-6.694c-.78-.918-1.575-1.832-2.331-2.774-.5-.623-.376-.818.295-1.318a19.834,19.834,0,0,0,1.946-1.879c.243-.281.4-.109.747.4A19.422,19.422,0,0,0,621.238,358.87Z" transform="translate(-571.898 -343.038)" fill="#fff"/><path d="M536.516,346.613v1.151l6.818-.186a.138.138,0,0,1,.143.138l-.057,1.456a.138.138,0,0,1-.138.129l-6.765-.176v1.327l6.118-.033a.133.133,0,0,1,.133.133v1.361a.128.128,0,0,1-.133.133l-5.547.033a8.977,8.977,0,0,0,3.23,2.455,13.986,13.986,0,0,0,2.56.8.133.133,0,0,1,.1.171l-.476,1.527a.128.128,0,0,1-.166.086,22.06,22.06,0,0,1-3.987-1.618,10.8,10.8,0,0,1-2.707-2.855,8.894,8.894,0,0,1-1.4,1.665,15.055,15.055,0,0,1-2.683,2.017,11.38,11.38,0,0,1-2.626.98.124.124,0,0,1-.148-.071,11.077,11.077,0,0,1-.642-1.579.138.138,0,0,1,.114-.167,7.288,7.288,0,0,0,3.763-1.427,9.879,9.879,0,0,0,2.122-2.127l-5.885.128a.133.133,0,0,1-.138-.133v-1.323a.133.133,0,0,1,.138-.133h6.527v-1.337l-6.922.043a.138.138,0,0,1-.138-.124l-.1-1.118a.133.133,0,0,1,.138-.147l7.018.143v-1.37l-5.414-.109a.129.129,0,0,1-.128-.138l.052-1.213a.128.128,0,0,1,.138-.128c.547,0,2.683.071,3.54.086.371,0,1.822-.057,1.822-.057v-1.247c-.99-.1-5.1,0-5.619-.038-.114,0-.138-.148-.148-.276s.038-.752.043-.928.2-.2.271-.2c1,.081,2.136,0,3.1.09-.133-.381-.595-1.4-.785-1.832a.133.133,0,0,1,.124-.19l1.9.024a.133.133,0,0,1,.128.1l.424,1.736,3.449-.043,1-1.646a.138.138,0,0,1,.124-.067l1.836.138a.138.138,0,0,1,.1.214l-.952,1.332,3.211-.029a.138.138,0,0,1,.138.143l-.09,1.228a.128.128,0,0,1-.133.124l-6.366-.038-.119,1.313,4.634-.1a.128.128,0,0,1,.138.138l-.024,1.175a.129.129,0,0,1-.119.129C540.484,346.308,537.687,346.542,536.516,346.613Z" transform="translate(-526.415 -340.348)" fill="#fff"/><path d="M655.778,353.791s-2.136,1.951-2.974,2.679-1.337,1.223-1.532,1.018-1.109-1.475-1.656-2.317c-.295-.447,0-.828.371-1.042a30.87,30.87,0,0,0,5.576-4.572,58.684,58.684,0,0,0,4.077-4.715c.476-.576.909-1.208,1.427-1.751.642-.676,1.123-.561,1.6.219.309.509,1.218,1.627,1.551,2.122.238.352-.176.557-.309.666-1.427,1.223-2.8,2.522-4.087,3.611a.809.809,0,0,0-.39.833c0,1.594-.038,3.183,0,4.758.057,2.274.162,8.792.176,9.634s0,.78-.524.952-2.188.381-2.664.476c-.728.167-.852.067-.89-.809s.323-6.775.3-10.138C655.831,355.085,655.778,353.791,655.778,353.791Z" transform="translate(-590.267 -341.532)" fill="#fff"/><path d="M534.238,387.683l-1.427-2.479s.071,2.165.138,2.921c.124,1.375.1,4.639.1,5.333a.133.133,0,0,1-.133.133h-1.142a.133.133,0,0,1-.133-.128c0-.338-.033-1.242-.047-1.618-.052-1.513.028-5.319.028-5.319a8.342,8.342,0,0,1-1.085,2.512,14.286,14.286,0,0,1-1.58,1.865.266.266,0,0,1-.395,0,2.775,2.775,0,0,1-.3-.428,4.328,4.328,0,0,1-.771,1.675,7.246,7.246,0,0,1-.88,1.113.133.133,0,0,1-.181,0l-1.17-1.042a.133.133,0,0,1,0-.19,9.133,9.133,0,0,0,1.76-3.278c.7-2.231.623-6.489.623-7.584v-2.793a.133.133,0,0,1,.138-.133h5.98l.157-1.951a.133.133,0,0,1,.147-.124l1.342.124a.133.133,0,0,1,.124.138l-.052,1.794,6.275.109a.133.133,0,0,1,.133.152l-.152,1.246a.129.129,0,0,1-.143.114c-.571-.038-2.888-.2-4.087-.2-2.241,0-4.482,0-6.722-.033h-1.561a72.541,72.541,0,0,1-.571,8.849c1.285-.323,2.7-3.012,2.626-4.929a8.673,8.673,0,0,1-1.508.081.133.133,0,0,1-.133-.138l.029-.828a.133.133,0,0,1,.128-.128c.333,0,1.256-.048,1.8-.048,0-.2-.029-1.456-.038-1.874a.138.138,0,0,1,.133-.138H533a.133.133,0,0,1,.138.138l-.086,1.775,1.851-.024a.138.138,0,0,1,.138.133l.029.89a.143.143,0,0,1-.138.143h-1.9l2.246,3.14a.138.138,0,0,1,0,.166l-.78.909a.133.133,0,0,1-.252-.052Zm9.13,1.865a13.856,13.856,0,0,1-1.427-1.394,15.33,15.33,0,0,1-1.965-2.65,5.41,5.41,0,0,1-.6-1.965h2.032a.143.143,0,0,0,.138-.143l-.067-1.227a.133.133,0,0,0-.148-.128l-2.227.19s.048-.952,0-1.58a.133.133,0,0,0-.119-.124l-1.042-.133a.138.138,0,0,0-.157.124c-.043.737,0,1.775,0,1.775l-1.8.038a.133.133,0,0,0-.133.138l.033.951a.133.133,0,0,0,.138.133l1.5-.057s-.647,1.836-1.313,3.568a8.087,8.087,0,0,1-1.9,2.8.133.133,0,0,0,0,.171l.585.871a.133.133,0,0,0,.214,0c.233-.281.78-.952,1.327-1.713a10.307,10.307,0,0,0,1.18-2.56l.1,6.561a.138.138,0,0,0,.143.128l1.2-.057a.138.138,0,0,0,.128-.138l-.128-6.761a26.4,26.4,0,0,0,3.169,4.529.133.133,0,0,0,.19,0c.247-.252.752-.914.952-1.17a.133.133,0,0,0,0-.181Z" transform="translate(-525.15 -359.089)" fill="#fff"/><path d="M781.67,367.441c.975-.2,1.746-.371,2.522-.514.414-.076.452-.114.476.233a12.533,12.533,0,0,0,.186,2.07c.2.918,1.28,2.084,2.179,1.9s1.708-1.3,1.727-3.535-.438-2.522-.752-2.969a4.347,4.347,0,0,0-2.626-.785c-.309,0-.152-.585-.152-.9s.057-1.613.057-1.9.343-.243.409-.238c1.489.1,1.689,0,2.274-1.285a5.314,5.314,0,0,0,.043-3.968,1.727,1.727,0,0,0-2.036-.818c-.476.214-.9,1.427-1.142,1.932a3.456,3.456,0,0,0-.271.823.314.314,0,0,1-.4.238,16.4,16.4,0,0,1-1.9-.628c-.247-.143-.262-.314-.176-.566s.266-.818.414-1.166a8.128,8.128,0,0,1,1.113-2.331,4.724,4.724,0,0,1,1.717-1.251,2.912,2.912,0,0,1,2.622.081,5.913,5.913,0,0,1,3.3,5.233c.081,1.123-.557,4.068-2.379,5.233a3.33,3.33,0,0,1,1.527.833c.866.742,1.085,4.011.98,6.1a6.224,6.224,0,0,1-.523,2.16,5.658,5.658,0,0,1-2.227,2.626,5.069,5.069,0,0,1-3.506.176,3.806,3.806,0,0,1-2.641-2.379A31.838,31.838,0,0,1,781.67,367.441Z" transform="translate(-659.512 -346.176)" fill="#fff"/><path d="M809.68,374.833a13.924,13.924,0,0,1-2.774-.152c-.143-.052-.238-.476-.224-.7.057-1.09.252-6.142.295-7.579s.19-2.945.176-4.415c0-1.361.19-5.538.19-5.538s-1.346.538-2.174.856c-.1.038-.309-.057-.323-.138-.128-.951-.419-1.9-.476-2.855,0-.171.19-.271.39-.362.576-.266,1.732-.714,2.379-.952.252-.1.352-.171.409-.176.619,0,1.9.038,2.279,0,.186,0,.3.228.3.476v6.918c0,2.8-.067,5.6-.09,8.411v5.115C810.06,374.087,810.141,374.833,809.68,374.833Z" transform="translate(-671.412 -346.865)" fill="#fff"/></g></svg>