<svg xmlns="http://www.w3.org/2000/svg" width="89.374" height="28.162" viewBox="0 0 89.374 28.162"><g transform="translate(0 0)"><path d="M264.319,1703.8v2.794H250.6v5.344c0,8.353-.553,12.039-2.4,15.97l-2.272-2.7c1.249-3.409,1.638-6.572,1.638-13.3V1703.8h6.755V1700.2h3.132v3.593Zm-.471,6.633v2.764h-5.773v3.163h5.056v11.486h-2.948v-1.352h-6.1v1.352h-2.927v-11.486H255v-8.938h3.071v3.01Zm-9.764,13.3h6.1v-4.7h-6.1Z" transform="translate(-245.936 -1699.864)" fill="#ff3c3c"/><path d="M290.693,1700.078h2.4v4.023H294.5l-.02-.062-.02-.092a14.8,14.8,0,0,0-.9-2.856l1.842-1.044a14,14,0,0,1,1.167,2.948l-1.883,1.106h2.334v2.733h-3.93v2.242h3.521v16.369c0,1.5-.409,2.027-1.617,2.027a9.507,9.507,0,0,1-1.433-.092l-.635-2.948v2.518h-2.088v-5.988h-1.331v6.757h-2.19v-18.642h3.378v-2.242h-3.644l-1.024,1.72a37.321,37.321,0,0,0-3.009-4.392l-.1-.123c-.409.921-.7,1.505-1.105,2.3h2.313v3.01h1.842v2.4h-1.842v2.272h2.518v2.519H278.7v-2.519h3.071v-2.272h-2.047v-2.027a8.014,8.014,0,0,1-.716.92l-1.064-2.733a21.191,21.191,0,0,0,3.93-8.169l2.416.8c-.2.583-.246.737-.368,1.045l-.061.184a23.508,23.508,0,0,1,3.091,3.654v-1.32h3.746Zm-4.565,27.487h-2.313v-1.106h-1.986v1.26h-2.354v-9.552h6.653Zm-4.36-21.13a27.77,27.77,0,0,1-1.781,2.918h1.781Zm.061,17.6h1.986V1720.5h-1.986Zm7.676-12.469v2.3h1.331v-2.3Zm0,4.637v2.426h1.331V1716.2Zm3.419-2.334h1.392v-2.3h-1.392Zm0,4.76h1.392V1716.2h-1.392Zm0,5.805a4.969,4.969,0,0,0,.921.123c.368,0,.471-.154.471-.645v-2.948h-1.392Z" transform="translate(-254.542 -1699.74)" fill="#ff3c3c"/><path d="M311.121,1724.553a42.814,42.814,0,0,0,.675-7.248l2.149.368a61.059,61.059,0,0,1-.675,8.262Zm3.234-8.906a.575.575,0,0,0-.2.031c-.676.092-1.229.153-2.457.276l-.471-2.949,1.167-.031c.471-.768.921-1.567,1.352-2.334l-.184-.4a26.7,26.7,0,0,0-2.293-4.115l1.433-2.212c.328.522.43.675.553.86l.123-.276a31.061,31.061,0,0,0,1.535-4.422l2.355,1.443a50.97,50.97,0,0,1-2.764,5.466,10.874,10.874,0,0,1,.594,1.168c.962-1.9,1.474-2.949,2.129-4.484l2.088,1.535a45.492,45.492,0,0,1-4.4,7.647c.88-.061,1.535-.123,2.232-.184a15.727,15.727,0,0,0-.594-2.242l1.7-.767a36.582,36.582,0,0,1,1.516,6.019l-1.986.891c-.061-.369-.082-.583-.143-.921v-.154l-.061-.4-.246.062-.245.031-.287.062v12.562h-2.436Zm3.378,8.814a49.848,49.848,0,0,0-.922-6.94l1.883-.738a51.984,51.984,0,0,1,1.187,6.634Zm7.164-19.717c-.348,4.576-1.575,7.709-3.807,9.735l-1.822-2.272c1.781-1.567,2.723-3.9,2.989-7.463h-2.5v-2.825H329.5a90.458,90.458,0,0,1-.348,9.735,2.205,2.205,0,0,1-2.5,2.119,19.571,19.571,0,0,1-2.171-.153l-.368-2.857a7.7,7.7,0,0,0,1.6.246c.594,0,.778-.246.9-1.1.1-.707.246-3.318.266-5.16Zm3.992,23.065h-2.682v-1.536h-3.05v1.536h-2.723v-12.5h8.454Zm-5.732-4.422h3.05v-5.313h-3.05Z" transform="translate(-263.465 -1699.83)" fill="#ff3c3c"/><path d="M356.656,1727.837h-3.132v-16.093h2.866a23.45,23.45,0,0,1-4.872-6.7,20.43,20.43,0,0,1-4.237,7.064H350.1v3.563c0,3.623-.164,5.19-.737,7a10.994,10.994,0,0,1-3.828,5.621l-2.108-2.611c2.559-1.842,3.6-4.637,3.6-9.582v-3.716a19.843,19.843,0,0,1-3.275,2.764l-1.7-2.917c3.562-2.15,6.346-6.081,7.82-11.026h3.091a22.437,22.437,0,0,0,8.188,10.1l-1.556,3.225a31.57,31.57,0,0,1-2.948-2.549Z" transform="translate(-271.785 -1700.135)" fill="#ff3c3c"/></g></svg>