<svg xmlns="http://www.w3.org/2000/svg" width="99.897" height="28.592" viewBox="0 0 99.897 28.592"><g transform="translate(0 0)"><path d="M248.7,1770.928c-.246,7.646-1.8,11.364-5.977,14.4l-2.62-2.426c3.808-2.826,5.077-5.743,5.22-11.978h-6.837v-3.163h16.581v3.163Zm3.193-10.6v3.163h-10.87v-3.163Zm1.535,3.5a37.387,37.387,0,0,0-1.453-4.423l1.331-.983a29.569,29.569,0,0,1,1.638,4.361Zm2.149-1.69a30.87,30.87,0,0,0-1.535-4.238l1.331-1.013a23.165,23.165,0,0,1,1.638,4.206Z" transform="translate(-238.488 -1756.893)" fill="#ff9c15"/><path d="M273.791,1760.981v14.1h-3.439v-14.1Zm8.536-.646v10.688c.02,7.862-1.7,12.1-6.182,15.387l-2.6-2.488a13.443,13.443,0,0,0,4.156-5.067c.88-1.874,1.208-3.992,1.208-8.108v-10.412Z" transform="translate(-247.057 -1757.818)" fill="#ff9c15"/><path d="M293.9,1780.3c1.863-3.317,3.6-9.765,4.729-17.443l3.152,1.228c-1.35,9.06-3.071,15.356-5.219,19.071Zm15.373,2.488a160.906,160.906,0,0,0-5.691-18.856l2.825-1.72a168.076,168.076,0,0,1,6.039,18.182Zm.082-17.2a21.255,21.255,0,0,0-2.047-4.208l1.433-1.412a25.211,25.211,0,0,1,2.047,4.146Zm2.272-2.273a22.8,22.8,0,0,0-2.068-4.145l1.351-1.444a28.338,28.338,0,0,1,2.149,4.115Z" transform="translate(-253.389 -1757.119)" fill="#ff9c15"/><path d="M330.688,1760.981v14.1h-3.439v-14.1Zm8.535-.646v10.688c.021,7.862-1.7,12.1-6.182,15.387l-2.6-2.488a13.45,13.45,0,0,0,4.156-5.067c.879-1.874,1.208-3.992,1.208-8.108v-10.412Z" transform="translate(-262.357 -1757.818)" fill="#ff9c15"/><path d="M369.083,1775v3.532H352.645V1775Z" transform="translate(-269.186 -1761.761)" fill="#ff9c15"/></g></svg>