<svg xmlns="http://www.w3.org/2000/svg" width="121.479" height="27.662" viewBox="0 0 121.479 27.662"><g transform="translate(-226.812 -1825.176)"><path d="M237.387,1838.456c-.254,7.885-1.865,11.764-6.189,14.911l-2.733-2.512c3.984-2.956,5.255-5.849,5.4-12.4h-7.057v-3.275h17.166v3.275Zm3.942-10.97v3.275h-11.91v-3.275Z" transform="translate(0 -0.562)" fill="#59d821"/><path d="M266.919,1852.729h-3.6v-14.022a40.427,40.427,0,0,1-5.511,4.992l-2.182-3.179c4.45-2.7,9.261-8.458,12.5-15.008l3.242,1.462a48.728,48.728,0,0,1-4.451,7.281Z" transform="translate(-7.004 -0.082)" fill="#59d821"/><path d="M296.9,1829.786l1.314,1.812c-1.335,9.953-4.832,17.265-10.151,21.177l-2.67-2.64c4.874-3.624,8.053-9.6,9.028-16.978h-4.408a26.592,26.592,0,0,1-4.408,7.981l-2.543-2.481c2.607-2.988,4.7-7.789,5.849-13.48l3.264.795c-.36,1.462-.487,1.939-1.017,3.816Z" transform="translate(-13.675)" fill="#59d821"/><path d="M327.193,1830.8a34.829,34.829,0,0,1-5.129,10.174l-2.543-2.035a32.964,32.964,0,0,0,3.921-6.963l-13.182.509-.064-3.625,15.2-.286Zm-16.848,19.618a12.937,12.937,0,0,0,4.7-6.963c.445-1.844.615-4.26.615-8.839h3.391c0,5.341-.17,7.758-.742,10.174a15.452,15.452,0,0,1-5.213,8.3Z" transform="translate(-20.271 -0.827)" fill="#59d821"/><path d="M353.991,1830.746l1.758,1.845c-.932,10.842-3.5,16.216-9.663,20.349l-2.862-2.545c5.6-3.274,8.351-8.457,8.71-16.215h-8.6v6.581h-3.37v-10.016h5.976v-5.15h3.391v5.15Z" transform="translate(-27.507 -0.102)" fill="#59d821"/><path d="M375.233,1834.383a59.663,59.663,0,0,1,8.223,6.073l-1.971,3.433a51.693,51.693,0,0,0-6.57-5.66v14.245h-3.454v-26.962h3.454v8.679Z" transform="translate(-35.165 -0.082)" fill="#59d821"/></g></svg>