<svg xmlns="http://www.w3.org/2000/svg" width="86.957" height="28.665" viewBox="0 0 86.957 28.665"><path d="M251.907,1633h3.013v4.961a20.278,20.278,0,0,0,3.2-.79l.169,3.223c-.969.254-1.559.38-3.37.7v4.488a10.652,10.652,0,0,1,2.612-.316c4.276,0,7.056,2.686,7.056,6.794a7.2,7.2,0,0,1-2.485,5.816,10.394,10.394,0,0,1-4.339,1.959l-1.791-2.686a8.472,8.472,0,0,0,3.434-1.2,4.8,4.8,0,0,0,1.917-4.045c0-2.465-1.517-3.919-4.066-3.919a9.314,9.314,0,0,0-2.338.316v8.027c0,2.18-.969,3.35-2.717,3.35a5.218,5.218,0,0,1-5.2-5.309c.062-3.224,1.727-5.816,4.907-7.584V1641.5c-1.432.158-2.548.221-3.58.253v-3.287c1.517,0,2.4-.032,3.58-.126Zm0,16.876a6.312,6.312,0,0,0-2,4.551c0,1.043.7,1.991,1.453,1.991.357,0,.547-.348.547-1.011Zm11.65-7.079a30.045,30.045,0,0,0-4.445-5.4l1.853-2.18a28.953,28.953,0,0,1,4.487,5.087Z" transform="translate(-247 -1632.143)" fill="#ff3c3c"/><path d="M285.823,1643.808h2.844v3.1H285.76c-.021.6-.126,1.8-.19,2.339a39.7,39.7,0,0,1,3.581,5.372l-1.748,3.192a43.13,43.13,0,0,0-2.444-4.772l-.021.095-.021.095a17.208,17.208,0,0,1-3.729,7.3l-2.043-2.875c2.444-2.75,3.665-6.226,3.813-10.745h-3.876v-3.1h3.939v-4.835h-.4a30.78,30.78,0,0,1-1.432,4.109l-2.38-1.927a27.529,27.529,0,0,0,2.275-9.292l2.844.412c-.19,1.359-.337,2.339-.59,3.634H288.2v3.066h-2.38Zm11.481,14.854h-2.886v-1.833h-2.275v2.149h-2.8v-23.545H297.3Zm-5.161-5.025h2.275v-15.075h-2.275Z" transform="translate(-254.878 -1631.862)" fill="#ff3c3c"/><path d="M311.4,1650.3c.211-3.477.485-6.195,1.138-10.9l.19-1.3,3.2.6c-.484,2.875-.843,5.561-1.053,7.932a7.853,7.853,0,0,1,5.709-2.148c3.686,0,6.235,2.749,6.235,6.7,0,4.709-3.434,7.459-10.575,8.47l-1.58-3a15.462,15.462,0,0,0,6.488-1.9,4.033,4.033,0,0,0,2-3.635c0-2.4-1.159-3.761-3.223-3.761-2.086,0-4.108,1.3-5.582,3.6Zm9.416-11.5a36.844,36.844,0,0,0-7.52-4.045l1.685-2.719a39.616,39.616,0,0,1,7.52,3.919Z" transform="translate(-262.95 -1631.904)" fill="#ff3c3c"/><path d="M344.475,1653.77c0,1.58.632,1.864,4.234,1.864a35.5,35.5,0,0,0,5.14-.348l.105,3.476a39.863,39.863,0,0,1-4.95.254c-3.223,0-4.971-.222-5.94-.758a3.212,3.212,0,0,1-1.6-3.129v-11.061l-3.581.253-.105-3.128,3.686-.284v-6.1h3.012v5.878l4.845-.348v-7.047h3.012v6.826l4-.284.105,3.13-4.108.315v5.942q0,2.938-2.4,2.938a7.2,7.2,0,0,1-2.991-.6v-3.192a3.825,3.825,0,0,0,1.812.664c.442,0,.569-.221.569-1.012v-4.551l-4.845.379Z" transform="translate(-269.482 -1632.216)" fill="#ff3c3c"/></svg>