<svg xmlns="http://www.w3.org/2000/svg" width="109.236" height="24.874" viewBox="0 0 109.236 24.874"><path d="M236.321,1837.35c-.229,7.09-1.677,10.578-5.565,13.409L228.3,1848.5c3.583-2.658,4.725-5.26,4.86-11.15h-6.346v-2.945h15.436v2.945Zm3.545-9.864v2.945h-10.71v-2.945Z" transform="translate(-226.812 -1825.914)" fill="#292929"/><path d="M265.781,1849.986h-3.239v-12.609a36.351,36.351,0,0,1-4.956,4.489l-1.962-2.859c4-2.43,8.327-7.606,11.244-13.5l2.915,1.314a43.807,43.807,0,0,1-4,6.547Z" transform="translate(-236.014 -1825.284)" fill="#292929"/><path d="M295.508,1829.322l1.182,1.629c-1.2,8.949-4.345,15.525-9.128,19.042l-2.4-2.374c4.383-3.259,7.242-8.634,8.118-15.267h-3.964a23.911,23.911,0,0,1-3.964,7.176l-2.287-2.231c2.344-2.687,4.231-7,5.26-12.122l2.935.715c-.324,1.315-.438,1.744-.915,3.431Z" transform="translate(-244.778 -1825.176)" fill="#292929"/><path d="M325.48,1830.58a31.327,31.327,0,0,1-4.612,9.149l-2.287-1.83a29.641,29.641,0,0,0,3.526-6.261l-11.854.457-.057-3.26,13.664-.257Zm-15.15,17.641a11.635,11.635,0,0,0,4.23-6.261,35.324,35.324,0,0,0,.553-7.948h3.049c0,4.8-.152,6.976-.667,9.149a13.9,13.9,0,0,1-4.688,7.462Z" transform="translate(-253.444 -1826.263)" fill="#292929"/><path d="M352.576,1830.227l1.581,1.659c-.838,9.749-3.144,14.581-8.689,18.3l-2.573-2.288c5.032-2.944,7.509-7.6,7.832-14.581h-7.737v5.918H339.96v-9.006h5.374V1825.6h3.049v4.631Z" transform="translate(-262.95 -1825.31)" fill="#292929"/><path d="M374.853,1833.489a53.647,53.647,0,0,1,7.394,5.461l-1.772,3.087a46.493,46.493,0,0,0-5.908-5.09v12.809h-3.106v-24.245h3.106v7.8Z" transform="translate(-273.012 -1825.284)" fill="#292929"/></svg>