<svg xmlns="http://www.w3.org/2000/svg" width="92.999" height="26.617" viewBox="0 0 92.999 26.617"><path d="M248,1769.959c-.229,7.118-1.677,10.579-5.565,13.409l-2.439-2.258c3.545-2.631,4.726-5.347,4.86-11.151h-6.365v-2.945h15.436v2.945Zm2.973-9.864v2.945H240.851v-2.945Zm1.429,3.26a34.775,34.775,0,0,0-1.353-4.118l1.239-.915a27.534,27.534,0,0,1,1.525,4.06Zm2-1.573a28.728,28.728,0,0,0-1.429-3.946l1.239-.943a21.564,21.564,0,0,1,1.525,3.916Z" transform="translate(-238.488 -1756.893)" fill="#292929"/><path d="M273.554,1760.937v13.123h-3.2v-13.123Zm7.947-.6v9.95c.019,7.319-1.582,11.265-5.755,14.324l-2.42-2.316a12.514,12.514,0,0,0,3.869-4.717c.819-1.744,1.124-3.717,1.124-7.548v-9.692Z" transform="translate(-248.665 -1757.993)" fill="#292929"/><path d="M293.9,1778.746c1.734-3.088,3.354-9.091,4.4-16.239l2.935,1.143c-1.257,8.434-2.859,14.3-4.859,17.755Zm14.312,2.316a149.813,149.813,0,0,0-5.3-17.554l2.63-1.6a156.445,156.445,0,0,1,5.622,16.926Zm.076-16.01a19.782,19.782,0,0,0-1.906-3.918l1.334-1.314a23.462,23.462,0,0,1,1.906,3.86Zm2.115-2.116a21.224,21.224,0,0,0-1.925-3.859l1.258-1.344a26.381,26.381,0,0,1,2,3.831Z" transform="translate(-256.186 -1757.161)" fill="#292929"/><path d="M330.451,1760.937v13.123h-3.2v-13.123Zm7.946-.6v9.95c.02,7.319-1.581,11.265-5.755,14.324l-2.42-2.316a12.522,12.522,0,0,0,3.869-4.717c.819-1.744,1.124-3.717,1.124-7.548v-9.692Z" transform="translate(-266.837 -1757.993)" fill="#292929"/><path d="M367.948,1775v3.288h-15.3V1775Z" transform="translate(-274.949 -1762.675)" fill="#292929"/></svg>